<?xml version="1.0" encoding="utf-8"?><!DOCTYPE svg PUBLIC "-//W3C//DTD SVG 1.1//EN" "http://www.w3.org/Graphics/SVG/1.1/DTD/svg11.dtd"><svg viewBox="0 0 128 128" xmlns="http://www.w3.org/2000/svg" xmlns:xlink="http://www.w3.org/1999/xlink"><desc>Created with https://github.com/gomig/avatar</desc><defs></defs><rect fill="#c9c9c9" x="4" y="4" width="128" height="128"/><g><path fill="#03071e" d="M91.3,52.6c-0.4,0.3-7.7,4.5-7.7,13.6c0,10.6,9.3,14.4,9.6,14.5c0,0.2-1.5,5.1-4.9,10.2c-3.1,4.4-6.3,8.8-11.1,8.8c-4.9,0-6.1-2.8-11.7-2.8c-5.5,0-7.4,2.9-11.9,2.9s-7.6-4.1-11.1-9.1c-4.1-5.9-7.5-15-7.5-23.7c0-13.9,9-21.3,18-21.3c4.7,0,8.7,3.1,11.6,3.1c2.8,0,7.2-3.3,12.6-3.3C79.1,45.5,86.5,45.7,91.3,52.6L91.3,52.6z M74.5,39.6c2.2-2.6,3.8-6.3,3.8-10c0-0.5,0-1-0.1-1.4c-3.6,0.1-7.9,2.4-10.5,5.4c-2,2.3-3.9,6-3.9,9.7c0,0.6,0.1,1.1,0.1,1.3c0.2,0,0.6,0.1,1,0.1C68.1,44.7,72.2,42.5,74.5,39.6L74.5,39.6z"/></g></svg>