<?xml version="1.0" encoding="utf-8"?><!DOCTYPE svg PUBLIC "-//W3C//DTD SVG 1.1//EN" "http://www.w3.org/Graphics/SVG/1.1/DTD/svg11.dtd"><svg viewBox="0 0 128 128" xmlns="http://www.w3.org/2000/svg" xmlns:xlink="http://www.w3.org/1999/xlink"><desc>Created with https://github.com/gomig/avatar</desc><defs></defs><circle fill="#ffeead" cx="64" cy="64" r="60"/><mask id="mask-2ef9cb99-b1c1-4c42-b39f-1026e71a1fb4"><path fill="white" d="M0,0V64H4c0,33.14,26.86,60,60,60s60-26.86,60-60h4V0H0Z"/></mask><g mask="url(#mask-2ef9cb99-b1c1-4c42-b39f-1026e71a1fb4)">
<g>
	<path fill="#fbdad0" d="M99.6,116.1c-1.1-8.1-7.5-12.9-14.2-17-6.2-3.8-11.3-7.6-12.3-11.4-.1-.7-.1-5,.2-7.1,1.1-.9,2.2-2,3.5-3.4,1.4-1.6,2.7-3.7,3.9-6,1.2,.2,3.7-1.2,5.2-3.9,1.9-3.5,1.4-8.3,.4-9.4-.5-.5-1.4-.1-2.2,.3,.3-3.5,.4-7.2,.1-11.3-1-14.3-11.3-18.2-20.2-18.2s-19,3.9-20.2,18.2c-.3,4.1-.3,7.8,.1,11.3-.8-.5-1.7-.8-2.2-.3-1,1-1.6,5.9,.4,9.4,1.5,2.6,4,4.1,5.2,3.9,1.1,2.3,2.3,4.4,3.9,6,1.2,1.3,2.3,2.4,3.5,3.4,.2,1.9,.3,6.3,.3,6.3-.4,4.1-5.8,8-12.4,12.1s-13,8.9-14.2,17c-1.1,8.1-1.4,12-1.4,12H101c0,.1-.2-3.8-1.4-11.9Z" />
	<path fill="#84706d" d="M64,67.5s-1.4-.1-2.3-.6c0,0,.4,1.8,2.3,1.9,1.9-.2,2.3-1.9,2.3-1.9-.9,.5-2.3,.6-2.3,.6Z" />
	<path fill="#84706d" opacity="0.2" d="M43.9,58.2c-.8-.5-1.7-.8-2.2-.3-1,1-1.6,5.9,.4,9.4,1.5,2.6,4,4.1,5.2,3.9-1.69-4.35-2.93-8.68-3.4-13Z" />
	<path fill="#84706d" opacity="0.2" d="M84.1,58.2c-.16,4.14-1.55,8.52-3.4,13,1.2,.2,3.7-1.2,5.2-3.9,1.9-3.5,1.4-8.3,.4-9.4-.5-.5-1.4-.1-2.2,.3Z" />
	<path fill="#84706d" opacity="0.2" d="M73.05,86.64c-.03-1.59,.02-4.45,.25-6.05-3.7,3.2-6.9,4.1-9.5,4.1s-5.44-.89-9.09-4.01c0,0,0,0,0,0,.1,1.02,.18,2.68,.23,4.02,9.07,5.28,18.12,2.44,18.11,1.93Z" />
</g><path fill="#ffd869" d="M90.26,101.74c-17.48,6.01-34.9,6.05-52.26,0-4.86,3.55-8.97,7.89-9.89,14.16-1.1,8.2-1.4,12.1-1.4,12.1H101.3c0-.1-.2-4-1.4-12.2-.84-6.27-4.79-10.56-9.64-14.06Z" />
<g>
	<path d="M56.1,57.3c-0.1-0.5-0.5-1-1.2-0.8c-0.7,0.2-4.2-0.5-3.9,1.1c0,0.1,0.2,0.1,0.3,0.1c0.2,0.1,0.4,0,0.7,0.1
	c0.3,0.1,0.5,0.2,0.8,0.3c0.4,0.2,0.9,0.4,1.3,0.5c-0.1,0.4-0.2,0.9-0.2,1.4c0,1.7,0.7,3.1,1.5,3.1s1.5-1.4,1.5-3.1
	C56.8,58.8,56.5,57.8,56.1,57.3z"/>
	<path d="M75.5,56.5c-1,0.4-2.2-0.3-3.2,0.2c-0.1,0-0.5,0.4-0.7,0.6c-0.4,0.6-0.7,1.5-0.7,2.6c0,1.7,0.7,3.1,1.5,3.1
	c0.8,0,1.5-1.4,1.5-3.1c0-0.6-0.1-1.2-0.2-1.6c0.1,0,0.1,0.1,0.2,0.1c0.7,0.3,1.5,0.4,2.2,0.1C77.2,57.9,76.8,56.1,75.5,56.5z"/>
</g>
<g>
	<path fill="#202123" d="M56.5,51.4c-0.1,0-0.2-0.1-0.3-0.1c-1-0.4-1.9-0.5-3.1-0.4c-1.1,0.1-1.9,0.4-2.9,0.9
	c-0.4,0.3-2.1,1.7-1.6,2.2c0.2,0.1,1.9-0.8,2.4-1c0.8-0.2,1.4-0.3,2.2-0.3c0.8,0,1.3,0.1,2,0.4c0,0,0.1,0.1,0.2,0.1
	c1.4,0.7,1.3,1.1,2.3,0.5C59.1,52.8,57.6,52,56.5,51.4z"/>
	<path fill="#202123" d="M71.4,51.4c0.1,0,0.2-0.1,0.3-0.1c1-0.4,1.9-0.5,3.1-0.4c1.1,0.1,1.9,0.4,2.9,0.9c0.4,0.3,2.1,1.7,1.6,2.2
	c-0.2,0.1-1.9-0.8-2.4-1c-0.8-0.2-1.4-0.3-2.2-0.3c-0.8,0-1.3,0.1-2,0.4c0,0-0.1,0.1-0.2,0.1c-1.4,0.7-1.3,1.1-2.3,0.5
	C68.8,52.8,70.3,52,71.4,51.4z"/>
</g>
<g>
	<path d="M60.3,73.5c0.8,0.3,2.8,0.8,3.7,0.7c0.9,0,2.7-0.3,3.6-0.6c1.2-0.5,1.6-0.9,2.2-1.2c0.1,0,0.2-0.1,0.2-0.1
	l0,0l0,0c-0.2,0.1-0.4,0.2-0.7,0.3c-0.3,0.1-0.9,0.2-1.5,0.3c-0.3,0.3-0.3,0.3-1,0.6C66.2,73.8,64.7,74,64,74
	c-0.7,0-2.3-0.3-2.9-0.6c-0.5-0.2-0.4-0.2-0.8-0.4c-0.1-0.1-0.1-0.1-0.2-0.2c-0.6-0.1-1.3-0.4-1.6-0.5c-0.4-0.1-0.6-0.2-0.8-0.3
	c0.2,0.2,0.5,0.3,0.6,0.4C59,72.7,59.3,73.1,60.3,73.5L60.3,73.5z"/>
	<path fill="#FEF2F0" d="M60.4,73c0.3,0.2,0.2,0.2,0.8,0.4c0.6,0.3,2.2,0.6,2.9,0.6c0.7,0,2.2-0.2,2.8-0.5c0.6-0.3,0.7-0.3,1-0.6
	c-0.6,0.1-1.1,0.2-1.4,0.2c-0.5,0.1-1.7,0.3-2.3,0.2c-0.7,0-2-0.2-2.5-0.3c-0.3,0-0.8-0.1-1.4-0.2C60.3,72.9,60.3,73,60.4,73
	L60.4,73z"/>
	<path fill="#852325" d="M70.1,72.1c-0.6,0.2-0.9,0.2-1.2,0.2c-3.3-0.5-4.9,0.2-4.9,0.2s-1.8-0.8-4.5-0.4c-0.4,0.1-0.9,0.1-1.6-0.1
	c-0.1-0.1-0.4,0-0.3,0c0,0.4,0.1,1.5,1.4,2.6c0.4,0.4,1,0.8,1.7,1.1l0,0c0.8,0.4,1.9,0.7,3.3,0.8c1.7-0.1,3-0.5,3.9-1
	c0.5-0.3,0.8-0.5,1.1-0.8c1.2-1.1,1.4-2.1,1.4-2.6C70.5,72.1,70.2,72.1,70.1,72.1z M67.6,73.6C66.8,74,65,74.3,64,74.2
	c-0.9,0-2.9-0.4-3.7-0.7c-1-0.4-1.3-0.7-1.9-1.1c-0.1-0.1-0.4-0.2-0.6-0.4l0,0c0.2,0.1,0.4,0.2,0.7,0.3c0.3,0.1,1,0.3,1.7,0.4
	c0.6,0.1,1.1,0.2,1.4,0.2c0.5,0.1,1.8,0.3,2.5,0.3c0.7,0,1.8-0.2,2.3-0.2c0.3,0,0.8-0.1,1.4-0.2s1.2-0.2,1.5-0.3
	c0.3-0.1,0.5-0.2,0.6-0.3l0,0l0,0l0,0l-0.1,0.1C69.2,72.7,68.8,73.1,67.6,73.6z"/>
</g><path opacity="0.85" d="M75.52,49.82c-3.73,0-6.87,2.53-7.81,5.96-.87-1.05-2.19-1.72-3.66-1.72s-2.86,.71-3.74,1.81c-.91-3.48-4.06-6.05-7.83-6.05-4.48,0-8.1,3.63-8.1,8.1s3.63,8.11,8.1,8.11c4.17,0,7.59-3.15,8.05-7.2h.04c0-1.92,1.56-3.48,3.48-3.48,1.63,0,3,1.14,3.37,2.66,.05,4.43,3.65,8.01,8.1,8.01s8.11-3.63,8.11-8.11-3.63-8.1-8.11-8.1Z" />
<g>
	<path fill="#3a3b40" d="M97.05,70c-1.58-4.1-3.94-7.97-5.04-12.19-.95-3.61-.96-7.39-2.27-10.91-.03-.09-.07-.17-.1-.26,0-.39,0-.77,0-1.15,0-6.98-5.33-28.74-24.84-24.84,0,0-7.6-2.67-15.81,2.67-2.8,1.82-4.93,4.07-6.52,6.58-.15,.17-.3,.35-.45,.54-.87,1.07-3.31,4.63-5.2,7.95-2.55,3.25-2.54,7.51-1.93,11.41,.61,3.9,1.73,7.83,1.06,11.72-.63,3.69-2.82,7-4.44,10.45-1.62,3.45-2.68,7.41-1.03,10.84,.89,1.87,2.51,3.42,3.51,5.25,.93,1.73,1.28,3.69,.98,5.58-.36,2.31-1.66,4.54-1.32,6.86,.2,1.3,.93,2.48,1.95,3.47,2.14-1.85,4.56-3.47,7.01-4.99,6.6-4.1,12-8,12.4-12.1,0,0-.1-4.4-.3-6.3-1.2-1-2.3-2.1-3.5-3.4-1.6-1.6-2.8-3.7-3.9-6-1.2,.2-3.7-1.3-5.2-3.9-2-3.5-1.4-8.4-.4-9.4,.5-.5,1.4-.2,2.2,.3-.1-.83,.64,5.1,1.53,7.52-.34-2.92,.06-8.59,.39-11.51,.34-2.92,1.42-5.86,3.54-7.89,2.02-1.93,4.78-2.88,7.49-3.55,2.72-.66,5.52-1.11,8.06-2.26,2.57-1.17,4.17-2.97,5.5-5.34,1.03,2.67,2.4,5.03,4.73,6.79,1.82,1.37,4.02,2.3,5.49,4.04,1.51,1.79,2.02,4.21,2.25,6.53,.3,3.01-.02,10.73-.52,13.72,.55-1.11,1.74-8.06,1.74-8.06,.8-.4,1.69-.79,2.18-.29,1,1.1,1.5,5.9-.4,9.4-1.5,2.7-4,4.1-5.2,3.9-1.2,2.3-2.5,4.4-3.9,6-1.3,1.4-2.4,2.5-3.5,3.4-.3,2.1-.3,6.4-.2,7.1,1,3.8,6.1,7.6,12.3,11.4,2.73,1.67,5.41,3.47,7.7,5.55,1.25-.64,2.24-1.52,2.67-2.75,1.24-3.52-3.11-6.79-3.2-10.47-.09-3.27,3.11-5.81,4.7-8.77,2.11-3.92,1.36-8.55-.22-12.65Z" />
	<path fill="#ffd869" d="M50.46,34.45c4.04-2.72,8.81-4.19,13.62-4.99,3.39-.56,6.92-.8,10.22,.19-3.46-3.86-8.89-5.69-14.04-5.19-5.15,.49-9.98,3.17-13.52,6.95-2.73,2.91-6.7,9.37-4.51,13.5,2.26-4.18,4.11-7.68,8.24-10.45Z" />
	<path fill="#202123" d="M55,86.9s-.1-4.4-.3-6.3c-1.2-1-2.3-2.1-3.5-3.4-1.6-1.6-2.8-3.7-3.9-6-.62,.1-1.57-.25-2.56-.96,.27,1.18,.46,2.36,.39,3.57-.24,3.91-3.24,7.46-2.69,11.34,.48,3.39,3.55,5.9,4.33,9.24,.14,.6,.2,1.19,.2,1.78,4.47-3.09,7.72-6.12,8.03-9.26Z" />
	<path fill="#202123" d="M84.2,46.9c.3,4.1,.2,7.8-.1,11.3,.8-.4,1.7-.8,2.2-.3,1,1.1,1.5,5.9-.4,9.4-1.5,2.7-4,4.1-5.2,3.9-1.2,2.3-2.5,4.4-3.9,6-1.3,1.4-2.4,2.5-3.5,3.4-.3,2.1-.3,6.4-.2,7.1,1,3.8,6.1,7.6,12.3,11.4,.5,.31,1,.62,1.5,.94-2.08-2.25-3.56-4.68-2.85-8.27,.56-2.81,2.31-5.21,3.92-7.58,2.15-3.17,4.19-6.83,3.65-10.62-.36-2.55-1.85-4.77-2.84-7.14-.93-2.23-1.43-4.63-1.47-7.05-.04-2.68,.48-5.36,.31-8.04-.18-3.01-1.21-5.89-2.23-8.72-.51-1.42-1.04-2.88-1.99-4.05-.66-.81-1.5-1.44-2.39-1.99,1.72,2.61,2.89,5.99,3.19,10.33Z" />
</g></g></svg>