<?xml version="1.0" encoding="utf-8"?><!DOCTYPE svg PUBLIC "-//W3C//DTD SVG 1.1//EN" "http://www.w3.org/Graphics/SVG/1.1/DTD/svg11.dtd"><svg viewBox="0 0 128 128" xmlns="http://www.w3.org/2000/svg" xmlns:xlink="http://www.w3.org/1999/xlink"><desc>Created with https://github.com/gomig/avatar</desc><defs></defs><path fill="#88d8b0" d="M117.5,87.16V40.75c0-4.76-2.61-9.24-6.63-11.58L70.72,6.02c-4.2-2.33-9.24-2.33-13.35,0L17.22,29.27c-4.2,2.33-6.72,6.72-6.72,11.58v46.31c0,4.76,2.61,9.24,6.63,11.58l40.15,23.25c4.2,2.33,9.24,2.33,13.35,0l40.05-23.34c4.29-2.33,6.82-6.72,6.82-11.48Z"/><mask id="mask-1698f9e6-30bc-4006-9ea4-3d4ccd84ff5f"><path fill="white" d="M0,0V64H10.5v23.16c0,4.76,2.61,9.24,6.63,11.58l40.15,23.25c4.2,2.33,9.24,2.33,13.35,0l40.05-23.34c4.29-2.33,6.82-6.72,6.82-11.48v-23.16h10.5V0H0Z"/></mask><g mask="url(#mask-1698f9e6-30bc-4006-9ea4-3d4ccd84ff5f)">
<g>
	<path fill="#b06f51" d="M99.6,116.1c-1.1-8.1-7.5-12.9-14.2-17-6.2-3.8-11.3-7.6-12.3-11.4-.1-.7-.1-5,.2-7.1,1.1-.9,2.2-2,3.5-3.4,1.4-1.6,2.7-3.7,3.9-6,1.2,.2,3.7-1.2,5.2-3.9,1.9-3.5,1.4-8.3,.4-9.4-.5-.5-1.4-.1-2.2,.3,.3-3.5,.4-7.2,.1-11.3-1-14.3-11.3-18.2-20.2-18.2s-19,3.9-20.2,18.2c-.3,4.1-.3,7.8,.1,11.3-.8-.5-1.7-.8-2.2-.3-1,1-1.6,5.9,.4,9.4,1.5,2.6,4,4.1,5.2,3.9,1.1,2.3,2.3,4.4,3.9,6,1.2,1.3,2.3,2.4,3.5,3.4,.2,1.9,.3,6.3,.3,6.3-.4,4.1-5.8,8-12.4,12.1s-13,8.9-14.2,17c-1.1,8.1-1.4,12-1.4,12H101c0,.1-.2-3.8-1.4-11.9Z" />
	<path fill="#3d261d" d="M64,67.5s-1.4-.1-2.3-.6c0,0,.4,1.8,2.3,1.9,1.9-.2,2.3-1.9,2.3-1.9-.9,.5-2.3,.6-2.3,.6Z" />
	<path fill="#3d261d" opacity="0.2" d="M43.9,58.2c-.8-.5-1.7-.8-2.2-.3-1,1-1.6,5.9,.4,9.4,1.5,2.6,4,4.1,5.2,3.9-1.69-4.35-2.93-8.68-3.4-13Z" />
	<path fill="#3d261d" opacity="0.2" d="M84.1,58.2c-.16,4.14-1.55,8.52-3.4,13,1.2,.2,3.7-1.2,5.2-3.9,1.9-3.5,1.4-8.3,.4-9.4-.5-.5-1.4-.1-2.2,.3Z" />
	<path fill="#3d261d" opacity="0.2" d="M73.05,86.64c-.03-1.59,.02-4.45,.25-6.05-3.7,3.2-6.9,4.1-9.5,4.1s-5.44-.89-9.09-4.01c0,0,0,0,0,0,.1,1.02,.18,2.68,.23,4.02,9.07,5.28,18.12,2.44,18.11,1.93Z" />
</g><g>
			<path fill="#008d68" d="M101.05,128c-1.2-14.4-.3-20-15.7-29.1-5.7-3.4-8.9-6.9-11.3-10.8l-8.8,6-1.6,10.8-1.6-10.8-8.8-5.4c-3.7,5.6-6.6,7.8-12.5,11.3-12.6,7.4-12.8,14-13.8,28H101.05Z" />
			<path d="M67.65,98.4c0,.5-.4,.9-.9,.9s-.9-.4-.9-.9,.4-.9,.9-.9,.9,.4,.9,.9Z" />
			<path d="M67.05,103c0,.5-.4,.9-.9,.9s-.9-.4-.9-.9,.4-.9,.9-.9,.9,.4,.9,.9Z" />
		</g>
<g>
	<path d="M56.1,57.3c-0.1-0.5-0.5-1-1.2-0.8c-0.7,0.2-4.2-0.5-3.9,1.1c0,0.1,0.2,0.1,0.3,0.1c0.2,0.1,0.4,0,0.7,0.1
	c0.3,0.1,0.5,0.2,0.8,0.3c0.4,0.2,0.9,0.4,1.3,0.5c-0.1,0.4-0.2,0.9-0.2,1.4c0,1.7,0.7,3.1,1.5,3.1s1.5-1.4,1.5-3.1
	C56.8,58.8,56.5,57.8,56.1,57.3z"/>
	<path d="M75.5,56.5c-1,0.4-2.2-0.3-3.2,0.2c-0.1,0-0.5,0.4-0.7,0.6c-0.4,0.6-0.7,1.5-0.7,2.6c0,1.7,0.7,3.1,1.5,3.1
	c0.8,0,1.5-1.4,1.5-3.1c0-0.6-0.1-1.2-0.2-1.6c0.1,0,0.1,0.1,0.2,0.1c0.7,0.3,1.5,0.4,2.2,0.1C77.2,57.9,76.8,56.1,75.5,56.5z"/>
</g>
<g>
	<path fill="#202123" d="M56.5,51.4c-0.1,0-0.2-0.1-0.3-0.1c-1-0.4-1.9-0.5-3.1-0.4c-1.1,0.1-1.9,0.4-2.9,0.9
	c-0.4,0.3-2.1,1.7-1.6,2.2c0.2,0.1,1.9-0.8,2.4-1c0.8-0.2,1.4-0.3,2.2-0.3c0.8,0,1.3,0.1,2,0.4c0,0,0.1,0.1,0.2,0.1
	c1.4,0.7,1.3,1.1,2.3,0.5C59.1,52.8,57.6,52,56.5,51.4z"/>
	<path fill="#202123" d="M71.4,51.4c0.1,0,0.2-0.1,0.3-0.1c1-0.4,1.9-0.5,3.1-0.4c1.1,0.1,1.9,0.4,2.9,0.9c0.4,0.3,2.1,1.7,1.6,2.2
	c-0.2,0.1-1.9-0.8-2.4-1c-0.8-0.2-1.4-0.3-2.2-0.3c-0.8,0-1.3,0.1-2,0.4c0,0-0.1,0.1-0.2,0.1c-1.4,0.7-1.3,1.1-2.3,0.5
	C68.8,52.8,70.3,52,71.4,51.4z"/>
</g>
<g>
	<path d="M60.3,73.5c0.8,0.3,2.8,0.8,3.7,0.7c0.9,0,2.7-0.3,3.6-0.6c1.2-0.5,1.6-0.9,2.2-1.2c0.1,0,0.2-0.1,0.2-0.1
	l0,0l0,0c-0.2,0.1-0.4,0.2-0.7,0.3c-0.3,0.1-0.9,0.2-1.5,0.3c-0.3,0.3-0.3,0.3-1,0.6C66.2,73.8,64.7,74,64,74
	c-0.7,0-2.3-0.3-2.9-0.6c-0.5-0.2-0.4-0.2-0.8-0.4c-0.1-0.1-0.1-0.1-0.2-0.2c-0.6-0.1-1.3-0.4-1.6-0.5c-0.4-0.1-0.6-0.2-0.8-0.3
	c0.2,0.2,0.5,0.3,0.6,0.4C59,72.7,59.3,73.1,60.3,73.5L60.3,73.5z"/>
	<path fill="#FEF2F0" d="M60.4,73c0.3,0.2,0.2,0.2,0.8,0.4c0.6,0.3,2.2,0.6,2.9,0.6c0.7,0,2.2-0.2,2.8-0.5c0.6-0.3,0.7-0.3,1-0.6
	c-0.6,0.1-1.1,0.2-1.4,0.2c-0.5,0.1-1.7,0.3-2.3,0.2c-0.7,0-2-0.2-2.5-0.3c-0.3,0-0.8-0.1-1.4-0.2C60.3,72.9,60.3,73,60.4,73
	L60.4,73z"/>
	<path fill="#852325" d="M70.1,72.1c-0.6,0.2-0.9,0.2-1.2,0.2c-3.3-0.5-4.9,0.2-4.9,0.2s-1.8-0.8-4.5-0.4c-0.4,0.1-0.9,0.1-1.6-0.1
	c-0.1-0.1-0.4,0-0.3,0c0,0.4,0.1,1.5,1.4,2.6c0.4,0.4,1,0.8,1.7,1.1l0,0c0.8,0.4,1.9,0.7,3.3,0.8c1.7-0.1,3-0.5,3.9-1
	c0.5-0.3,0.8-0.5,1.1-0.8c1.2-1.1,1.4-2.1,1.4-2.6C70.5,72.1,70.2,72.1,70.1,72.1z M67.6,73.6C66.8,74,65,74.3,64,74.2
	c-0.9,0-2.9-0.4-3.7-0.7c-1-0.4-1.3-0.7-1.9-1.1c-0.1-0.1-0.4-0.2-0.6-0.4l0,0c0.2,0.1,0.4,0.2,0.7,0.3c0.3,0.1,1,0.3,1.7,0.4
	c0.6,0.1,1.1,0.2,1.4,0.2c0.5,0.1,1.8,0.3,2.5,0.3c0.7,0,1.8-0.2,2.3-0.2c0.3,0,0.8-0.1,1.4-0.2s1.2-0.2,1.5-0.3
	c0.3-0.1,0.5-0.2,0.6-0.3l0,0l0,0l0,0l-0.1,0.1C69.2,72.7,68.8,73.1,67.6,73.6z"/>
</g><path opacity="0.85" d="M75.52,49.82c-3.73,0-6.87,2.53-7.81,5.96-.87-1.05-2.19-1.72-3.66-1.72s-2.86,.71-3.74,1.81c-.91-3.48-4.06-6.05-7.83-6.05-4.48,0-8.1,3.63-8.1,8.1s3.63,8.11,8.1,8.11c4.17,0,7.59-3.15,8.05-7.2h.04c0-1.92,1.56-3.48,3.48-3.48,1.63,0,3,1.14,3.37,2.66,.05,4.43,3.65,8.01,8.1,8.01s8.11-3.63,8.11-8.11-3.63-8.1-8.11-8.1Z" /><path d="M54.98,86.01c.02,.54,.02,.89,.02,.89,0,.1-.04,.2-.05,.3h18.12c-.01-.3-.02-.72-.02-1.19h-18.07Z" /><g>
			<path fill="#3a3b40" d="M96.9,47.8c.07-1.89,1.28-3.52,1.88-5.32,.97-2.89,.18-6.29-1.95-8.46-1.36-1.38-3.24-2.34-4.09-4.08-1.2-2.46,.06-5.72-1.5-7.97-1.85-2.67-6.18-1.96-8.68-4.04-1.42-1.19-2.03-3.11-3.31-4.45-1.51-1.58-3.94-2.18-6.01-1.5-1.2,.4-2.36,1.2-3.61,.98-1.06-.18-1.84-1.07-2.77-1.61-1.31-.76-2.69-.62-4.08-.22-2.21,.64-1.77,.97-4.15,.3-2.92-.81-6.35-1.51-8.72,.98-1.6,1.69-2.1,4.44-4.17,5.49-1.13,.56-2.47,.47-3.71,.71-2.61,.52-4.8,2.73-5.29,5.34-.49,2.6,.45,5.71-1.35,7.66-.71,.77-1.72,1.18-2.57,1.79-1.78,1.3-2.74,3.63-2.41,5.8,.35,2.3,2.01,4.26,2.21,6.57,.19,2.15-.91,4.21-2.16,5.97-1.25,1.77-2.71,3.44-3.41,5.49-.71,2.04-.43,4.64,1.31,5.91,.79,.58,1.81,.84,2.67,1.29,.39,.21,.75,.45,1.05,.79,.98,1.11,.87,2.79,.8,4.27-.17,3.68,.78,8.1,4.22,9.41,1.98,.76,4.47,.32,6.03,1.76,1.11,1.03,1.33,2.68,2.08,3.99,1.74,3.07,5.76,3.72,9.31,3.97,.25-.58,.42-1.15,.47-1.74,0,0-.1-4.4-.3-6.3-1.2-1-2.3-2.1-3.5-3.4-1.6-1.6-2.8-3.7-3.9-6-1.2,.2-3.7-1.3-5.2-3.9-2-3.5-1.4-8.4-.4-9.4,.5-.5,1.4-.2,2.2,.3-.4-3.5-.4-7.2-.1-11.3,.21-2.48,.69-4.63,1.38-6.52,1.46,.29,3.03,.48,4.16,1.17,1.19,.73,1.7,1.91,2.77,2.74,1.26,.97,3.31,1.34,5.04,.92,1.01-.25,1.98-.74,3.02-.6,.89,.11,1.54,.66,2.32,.99,1.1,.47,2.26,.38,3.42,.13,1.86-.39,1.48-.6,3.48-.18,2.45,.5,5.33,.93,7.31-.6,1.34-1.04,1.76-2.73,3.5-3.37,.89-.33,1.94-.3,2.93-.42,.53,1.7,.89,3.6,1.04,5.75,.3,4.1,.2,7.8-.1,11.3,.8-.4,1.7-.8,2.2-.3,1,1.1,1.5,5.9-.4,9.4-1.5,2.7-4,4.1-5.2,3.9-1.2,2.3-2.5,4.4-3.9,6-1.3,1.4-2.4,2.5-3.5,3.4-.3,2.1-.3,6.4-.2,7.1,.11,.42,.28,.83,.48,1.25,3.18-.77,6.14-2.47,8.39-4.85,1.61-1.7,2.91-3.77,4.94-4.97,1.97-1.16,4.51-1.41,6.07-3.08,2.54-2.71,.96-7.2,2.18-10.7,.45-1.29,1.27-2.45,2.09-3.59,1.24-1.71,2.48-3.38,2.46-5.41-.02-3.04-2.91-5.53-2.81-8.56Z" />
			<path fill="#202123" d="M84.1,58.2c.8-.4,1.7-.8,2.2-.3,1,1.1,1.5,5.9-.4,9.4-1.5,2.7-4,4.1-5.2,3.9-1.2,2.3-2.5,4.4-3.9,6-1.3,1.4-2.4,2.5-3.5,3.4-.3,2.1-.3,6.4-.2,7.1,.11,.42,.28,.83,.48,1.25,3.18-.77,6.14-2.47,8.39-4.85,1.61-1.7,2.91-3.77,4.94-4.97,1.97-1.16,4.51-1.41,6.07-3.08,2.54-2.71,.96-7.2,2.18-10.7,.45-1.29,1.27-2.45,2.09-3.59-2.94,2.58-5.25,4.98-6.3-.92-.55-3.08,.6-7.34-2.34-9.51-1.25-.92-3.02-1.17-4.28-1.96,.11,3.13,.01,6.04-.23,8.82Z" />
			<path fill="#202123" d="M32.9,69.5c-.17,3.68,.78,8.1,4.22,9.41,1.98,.76,4.47,.32,6.03,1.76,1.11,1.03,1.33,2.68,2.08,3.99,1.74,3.07,5.76,3.72,9.31,3.97,.25-.58,.42-1.15,.47-1.74,0,0-.1-4.4-.3-6.3-1.2-1-2.3-2.1-3.5-3.4-1.6-1.6-2.8-3.7-3.9-6-1.2,.2-3.7-1.3-5.2-3.9-2-3.5-1.4-8.4-.4-9.4,.5-.5,1.4-.2,2.2,.3-.4-3.5-.4-7.2-.1-11.3,.1-1.17,.26-2.26,.47-3.29-.59,.43-1.18,.87-1.77,1.3-1.15,.84-2.31,1.7-3.2,2.81-1.19,1.49-1.82,3.41-1.75,5.32,.06,1.78,.32,4.21-1.39,4.7-.64,.18-1.31-.05-1.98,0-1.39,.12-2.41,1.44-2.76,2.78-.34,1.27-.25,2.59-.38,3.89,.39,.21,.75,.45,1.05,.79,.98,1.11,.87,2.79,.8,4.27Z" />
			<path fill="#202123" d="M51.39,31.23c.4,1.88,.83,3.8,1.91,5.39,.95,1.4,2.4,2.45,4.02,2.94,1.62,.48,3.41,.39,4.97-.25,1.15-.47,2.16-1.23,3.31-1.69,1.15-.47,2.56-.6,3.56,.13,.86,.63,1.24,1.76,2.09,2.41,.79,.6,1.85,.68,2.84,.58,2.64-.24,5.15-1.59,6.82-3.64l-29.52-5.87Z" />
			<path fill="#008d68" d="M62.63,34.04c18.67-.17,21.63,16.48,21.5,21.89,.42-4.34,.74-8.74,0-13.03-.74-4.29-5.99-15.65-22.26-14.91s-18.73,13.58-19.03,17.38c-.23,2.89-.19,6.32,.66,9.08,1.51-3.11,.46-20.24,19.13-20.41Z" />
		</g></g></svg>