<?xml version="1.0" encoding="utf-8"?><!DOCTYPE svg PUBLIC "-//W3C//DTD SVG 1.1//EN" "http://www.w3.org/Graphics/SVG/1.1/DTD/svg11.dtd"><svg viewBox="0 0 128 128" xmlns="http://www.w3.org/2000/svg" xmlns:xlink="http://www.w3.org/1999/xlink"><desc>Created with https://github.com/gomig/avatar</desc><defs></defs><path fill="#88d0ca" d="M117.5,87.16V40.75c0-4.76-2.61-9.24-6.63-11.58L70.72,6.02c-4.2-2.33-9.24-2.33-13.35,0L17.22,29.27c-4.2,2.33-6.72,6.72-6.72,11.58v46.31c0,4.76,2.61,9.24,6.63,11.58l40.15,23.25c4.2,2.33,9.24,2.33,13.35,0l40.05-23.34c4.29-2.33,6.82-6.72,6.82-11.48Z"/><mask id="mask-d71536a5-91bd-4256-9ae9-69003ebb5d6c"><path fill="white" d="M0,0V64H10.5v23.16c0,4.76,2.61,9.24,6.63,11.58l40.15,23.25c4.2,2.33,9.24,2.33,13.35,0l40.05-23.34c4.29-2.33,6.82-6.72,6.82-11.48v-23.16h10.5V0H0Z"/></mask><g mask="url(#mask-d71536a5-91bd-4256-9ae9-69003ebb5d6c)">
<g>
	<path fill="#ceaa82" d="M99.6,116.1c-1.1-8.1-7.5-12.9-14.2-17-6.2-3.8-11.3-7.6-12.3-11.4-.1-.7-.1-5,.2-7.1,1.1-.9,2.2-2,3.5-3.4,1.4-1.6,2.7-3.7,3.9-6,1.2,.2,3.7-1.2,5.2-3.9,1.9-3.5,1.4-8.3,.4-9.4-.5-.5-1.4-.1-2.2,.3,.3-3.5,.4-7.2,.1-11.3-1-14.3-11.3-18.2-20.2-18.2s-19,3.9-20.2,18.2c-.3,4.1-.3,7.8,.1,11.3-.8-.5-1.7-.8-2.2-.3-1,1-1.6,5.9,.4,9.4,1.5,2.6,4,4.1,5.2,3.9,1.1,2.3,2.3,4.4,3.9,6,1.2,1.3,2.3,2.4,3.5,3.4,.2,1.9,.3,6.3,.3,6.3-.4,4.1-5.8,8-12.4,12.1s-13,8.9-14.2,17c-1.1,8.1-1.4,12-1.4,12H101c0,.1-.2-3.8-1.4-11.9Z" />
	<path fill="#896f52" d="M64,67.5s-1.4-.1-2.3-.6c0,0,.4,1.8,2.3,1.9,1.9-.2,2.3-1.9,2.3-1.9-.9,.5-2.3,.6-2.3,.6Z" />
	<path fill="#896f52" opacity="0.2" d="M43.9,58.2c-.8-.5-1.7-.8-2.2-.3-1,1-1.6,5.9,.4,9.4,1.5,2.6,4,4.1,5.2,3.9-1.69-4.35-2.93-8.68-3.4-13Z" />
	<path fill="#896f52" opacity="0.2" d="M84.1,58.2c-.16,4.14-1.55,8.52-3.4,13,1.2,.2,3.7-1.2,5.2-3.9,1.9-3.5,1.4-8.3,.4-9.4-.5-.5-1.4-.1-2.2,.3Z" />
	<path fill="#896f52" opacity="0.2" d="M73.05,86.64c-.03-1.59,.02-4.45,.25-6.05-3.7,3.2-6.9,4.1-9.5,4.1s-5.44-.89-9.09-4.01c0,0,0,0,0,0,.1,1.02,.18,2.68,.23,4.02,9.07,5.28,18.12,2.44,18.11,1.93Z" />
</g><g>
			<path fill="white" d="M62.3,103.5l-.7-4.5-11.8-7.2c-2.3,3.6-5.6,8.1-10.1,11.7h22.6Z" />
			<path fill="white" d="M88.1,103.5c-4.8-3.7-8.2-8.6-10.5-12.5l-11.7,8-.6,4.5h22.8Z" />
			<path fill="#0f3630" d="M91.7,103.3c-2.5-2-6.6-4.6-10.9-7.4-3.3,2.2-9,3.7-15.5,3.9h-3c-6.4-.2-12-1.7-15.3-3.8-5,2.8-9.6,5.6-12.3,8.4-5.1,4.3-7.8,11.9-7.7,23.6H101c-.4-15.9-4.5-21.4-9.3-24.7Z" />
		</g>
<g>
	<path d="M56.1,57.3c-0.1-0.5-0.5-1-1.2-0.8c-0.7,0.2-4.2-0.5-3.9,1.1c0,0.1,0.2,0.1,0.3,0.1c0.2,0.1,0.4,0,0.7,0.1
	c0.3,0.1,0.5,0.2,0.8,0.3c0.4,0.2,0.9,0.4,1.3,0.5c-0.1,0.4-0.2,0.9-0.2,1.4c0,1.7,0.7,3.1,1.5,3.1s1.5-1.4,1.5-3.1
	C56.8,58.8,56.5,57.8,56.1,57.3z"/>
	<path d="M75.5,56.5c-1,0.4-2.2-0.3-3.2,0.2c-0.1,0-0.5,0.4-0.7,0.6c-0.4,0.6-0.7,1.5-0.7,2.6c0,1.7,0.7,3.1,1.5,3.1
	c0.8,0,1.5-1.4,1.5-3.1c0-0.6-0.1-1.2-0.2-1.6c0.1,0,0.1,0.1,0.2,0.1c0.7,0.3,1.5,0.4,2.2,0.1C77.2,57.9,76.8,56.1,75.5,56.5z"/>
</g>
<g>
	<path fill="#202123" d="M56.5,51.4c-0.1,0-0.2-0.1-0.3-0.1c-1-0.4-1.9-0.5-3.1-0.4c-1.1,0.1-1.9,0.4-2.9,0.9
	c-0.4,0.3-2.1,1.7-1.6,2.2c0.2,0.1,1.9-0.8,2.4-1c0.8-0.2,1.4-0.3,2.2-0.3c0.8,0,1.3,0.1,2,0.4c0,0,0.1,0.1,0.2,0.1
	c1.4,0.7,1.3,1.1,2.3,0.5C59.1,52.8,57.6,52,56.5,51.4z"/>
	<path fill="#202123" d="M71.4,51.4c0.1,0,0.2-0.1,0.3-0.1c1-0.4,1.9-0.5,3.1-0.4c1.1,0.1,1.9,0.4,2.9,0.9c0.4,0.3,2.1,1.7,1.6,2.2
	c-0.2,0.1-1.9-0.8-2.4-1c-0.8-0.2-1.4-0.3-2.2-0.3c-0.8,0-1.3,0.1-2,0.4c0,0-0.1,0.1-0.2,0.1c-1.4,0.7-1.3,1.1-2.3,0.5
	C68.8,52.8,70.3,52,71.4,51.4z"/>
</g>
<g>
	<path d="M60.3,73.5c0.8,0.3,2.8,0.8,3.7,0.7c0.9,0,2.7-0.3,3.6-0.6c1.2-0.5,1.6-0.9,2.2-1.2c0.1,0,0.2-0.1,0.2-0.1
	l0,0l0,0c-0.2,0.1-0.4,0.2-0.7,0.3c-0.3,0.1-0.9,0.2-1.5,0.3c-0.3,0.3-0.3,0.3-1,0.6C66.2,73.8,64.7,74,64,74
	c-0.7,0-2.3-0.3-2.9-0.6c-0.5-0.2-0.4-0.2-0.8-0.4c-0.1-0.1-0.1-0.1-0.2-0.2c-0.6-0.1-1.3-0.4-1.6-0.5c-0.4-0.1-0.6-0.2-0.8-0.3
	c0.2,0.2,0.5,0.3,0.6,0.4C59,72.7,59.3,73.1,60.3,73.5L60.3,73.5z"/>
	<path fill="#FEF2F0" d="M60.4,73c0.3,0.2,0.2,0.2,0.8,0.4c0.6,0.3,2.2,0.6,2.9,0.6c0.7,0,2.2-0.2,2.8-0.5c0.6-0.3,0.7-0.3,1-0.6
	c-0.6,0.1-1.1,0.2-1.4,0.2c-0.5,0.1-1.7,0.3-2.3,0.2c-0.7,0-2-0.2-2.5-0.3c-0.3,0-0.8-0.1-1.4-0.2C60.3,72.9,60.3,73,60.4,73
	L60.4,73z"/>
	<path fill="#852325" d="M70.1,72.1c-0.6,0.2-0.9,0.2-1.2,0.2c-3.3-0.5-4.9,0.2-4.9,0.2s-1.8-0.8-4.5-0.4c-0.4,0.1-0.9,0.1-1.6-0.1
	c-0.1-0.1-0.4,0-0.3,0c0,0.4,0.1,1.5,1.4,2.6c0.4,0.4,1,0.8,1.7,1.1l0,0c0.8,0.4,1.9,0.7,3.3,0.8c1.7-0.1,3-0.5,3.9-1
	c0.5-0.3,0.8-0.5,1.1-0.8c1.2-1.1,1.4-2.1,1.4-2.6C70.5,72.1,70.2,72.1,70.1,72.1z M67.6,73.6C66.8,74,65,74.3,64,74.2
	c-0.9,0-2.9-0.4-3.7-0.7c-1-0.4-1.3-0.7-1.9-1.1c-0.1-0.1-0.4-0.2-0.6-0.4l0,0c0.2,0.1,0.4,0.2,0.7,0.3c0.3,0.1,1,0.3,1.7,0.4
	c0.6,0.1,1.1,0.2,1.4,0.2c0.5,0.1,1.8,0.3,2.5,0.3c0.7,0,1.8-0.2,2.3-0.2c0.3,0,0.8-0.1,1.4-0.2s1.2-0.2,1.5-0.3
	c0.3-0.1,0.5-0.2,0.6-0.3l0,0l0,0l0,0l-0.1,0.1C69.2,72.7,68.8,73.1,67.6,73.6z"/>
</g><g>
			<path fill="white" opacity="0.25" d="M52.15,49.82l8.89,12.07s-2.68,5.13-6.95,4.56l-8.98-11.78s2.43-5.18,7.04-4.85Z" />
			<path fill="white" opacity="0.25" d="M74.02,49.82l8.89,12.07s-2.68,5.13-6.95,4.56l-8.98-11.78s2.43-5.18,7.04-4.85Z" />
			<path fill="#011915" d="M74.95,49.14c-4.82,0-8.77,3.79-9.04,8.54-1.48-.47-3.04-.18-3.81,.03-.26-4.77-4.21-8.57-9.05-8.57s-9.07,4.07-9.07,9.07,4.07,9.07,9.07,9.07,8.91-3.92,9.06-8.79c.59-.18,2.3-.58,3.78,0,.15,4.88,4.15,8.8,9.06,8.8s9.07-4.07,9.07-9.07-4.07-9.07-9.07-9.07Zm-21.9,17.39c-4.59,0-8.32-3.73-8.32-8.32s3.73-8.32,8.32-8.32,8.32,3.73,8.32,8.32-3.73,8.32-8.32,8.32Zm21.9,0c-4.59,0-8.32-3.73-8.32-8.32s3.73-8.32,8.32-8.32,8.32,3.73,8.32,8.32-3.73,8.32-8.32,8.32Z" />
		</g><path d="M54.98,86.01c.02,.54,.02,.89,.02,.89,0,.1-.04,.2-.05,.3h18.12c-.01-.3-.02-.72-.02-1.19h-18.07Z" /><g>
			<path fill="#3a3b40" d="M51.37,41.17c1.7,6.9-1.4,13.5-2.9,14.8,0,0-1.9-4.2-1.9-5.1l-.7,5.8s-1.3-.5-2.1-1.4-4.3-10.8-3.8-13.7,2.2-5.6,4.2-8.1c.1-3.4,1.6-6,4.7-8.5,3.1-2.4,13.1-5.9,13.3-5.8s-.5,3.3-1.6,4.7c4.6-1.2,10-1.8,13.8-.7,3.8,1,12,4.2,13.3,4.3,1.1,.2-1.2,3-3.1,3.5,2,2.3,4,8,3.4,14-.9,5.9-3.2,9.6-3.7,10.4-.5,.6-2.1,1.4-2.1,1.4,0,0-2.5-4-4.8-7.4,0,0,.6,2.5,.3,2.7-.4,.2-8.9-2.7-13.1-5,0,0,2.7,4.7,2.1,4.8-.5,0-9.8-1.4-15.3-10.7Z" />
			<path fill="#4c4d51" d="M59.27,39.69c-1.35-1.24-4.45-3.52-6.18-4.03,.34,.52,3.16,4.13,4.26,5.02,2.35,1.89,7.78,4.88,7.99,4.78,.17,.05,.92,.63-6.06-5.77Z" />
			<path fill="#4c4d51" d="M79.6,37.34c.91,1.02,1.7,2.11,2.47,3.23,.02-.43,.04-.86,.03-1.32-.04-.65-.3-1.37-.62-2.03-.86-1.77-2.52-3.11-4.48-3.31-.15-.02-.3-.02-.45-.02-.21,0-.43,.02-.64,.02,1.33,1.02,2.57,2.17,3.69,3.43Z" />
			<path fill="#4c4d51" d="M68.43,33.86c3.3,.07,12.58,9.79,13.94,14.93,0,0-.76-5.4-4.43-9.87-4.42-4.75-7.9-5.34-9.51-5.06Z" />
		</g></g></svg>