<?xml version="1.0" encoding="utf-8"?><!DOCTYPE svg PUBLIC "-//W3C//DTD SVG 1.1//EN" "http://www.w3.org/Graphics/SVG/1.1/DTD/svg11.dtd"><svg viewBox="0 0 128 128" xmlns="http://www.w3.org/2000/svg" xmlns:xlink="http://www.w3.org/1999/xlink"><desc>Created with https://github.com/gomig/avatar</desc><defs></defs><path fill="#f58f97" d="M117.5,87.16V40.75c0-4.76-2.61-9.24-6.63-11.58L70.72,6.02c-4.2-2.33-9.24-2.33-13.35,0L17.22,29.27c-4.2,2.33-6.72,6.72-6.72,11.58v46.31c0,4.76,2.61,9.24,6.63,11.58l40.15,23.25c4.2,2.33,9.24,2.33,13.35,0l40.05-23.34c4.29-2.33,6.82-6.72,6.82-11.48Z"/><mask id="mask-73410880-0c89-47bb-9cb6-605196e5a2d8"><path fill="white" d="M0,0V64H10.5v23.16c0,4.76,2.61,9.24,6.63,11.58l40.15,23.25c4.2,2.33,9.24,2.33,13.35,0l40.05-23.34c4.29-2.33,6.82-6.72,6.82-11.48v-23.16h10.5V0H0Z"/></mask><g mask="url(#mask-73410880-0c89-47bb-9cb6-605196e5a2d8)"><path fill="#6b1520" d="M50.4,75.68c1.49,2.04,3.85,3.46,6.53,3.46,4.48,0,4.64-4.8,4.64-8.26V33.85h16.04v40.18c0,7.94-1.02,20.13-16.59,20.13-3.7,0-7.16-.71-10.61-1.89v-16.59Z"/></g></svg>