<?xml version="1.0" encoding="utf-8"?><!DOCTYPE svg PUBLIC "-//W3C//DTD SVG 1.1//EN" "http://www.w3.org/Graphics/SVG/1.1/DTD/svg11.dtd"><svg viewBox="0 0 128 128" xmlns="http://www.w3.org/2000/svg" xmlns:xlink="http://www.w3.org/1999/xlink"><desc>Created with https://github.com/gomig/avatar</desc><defs></defs><path fill="#f58f97" d="M117.5,87.16V40.75c0-4.76-2.61-9.24-6.63-11.58L70.72,6.02c-4.2-2.33-9.24-2.33-13.35,0L17.22,29.27c-4.2,2.33-6.72,6.72-6.72,11.58v46.31c0,4.76,2.61,9.24,6.63,11.58l40.15,23.25c4.2,2.33,9.24,2.33,13.35,0l40.05-23.34c4.29-2.33,6.82-6.72,6.82-11.48Z"/><mask id="mask-d2ab15c5-7962-46a9-846d-e5f83ba82a27"><path fill="white" d="M0,0V64H10.5v23.16c0,4.76,2.61,9.24,6.63,11.58l40.15,23.25c4.2,2.33,9.24,2.33,13.35,0l40.05-23.34c4.29-2.33,6.82-6.72,6.82-11.48v-23.16h10.5V0H0Z"/></mask><g mask="url(#mask-d2ab15c5-7962-46a9-846d-e5f83ba82a27)">
<g>
	<path fill="#ceaa82" d="M99.6,116.1c-1.1-8.1-7.5-12.9-14.2-17-6.2-3.8-11.3-7.6-12.3-11.4-.1-.7-.1-5,.2-7.1,1.1-.9,2.2-2,3.5-3.4,1.4-1.6,2.7-3.7,3.9-6,1.2,.2,3.7-1.2,5.2-3.9,1.9-3.5,1.4-8.3,.4-9.4-.5-.5-1.4-.1-2.2,.3,.3-3.5,.4-7.2,.1-11.3-1-14.3-11.3-18.2-20.2-18.2s-19,3.9-20.2,18.2c-.3,4.1-.3,7.8,.1,11.3-.8-.5-1.7-.8-2.2-.3-1,1-1.6,5.9,.4,9.4,1.5,2.6,4,4.1,5.2,3.9,1.1,2.3,2.3,4.4,3.9,6,1.2,1.3,2.3,2.4,3.5,3.4,.2,1.9,.3,6.3,.3,6.3-.4,4.1-5.8,8-12.4,12.1s-13,8.9-14.2,17c-1.1,8.1-1.4,12-1.4,12H101c0,.1-.2-3.8-1.4-11.9Z" />
	<path fill="#896f52" d="M64,67.5s-1.4-.1-2.3-.6c0,0,.4,1.8,2.3,1.9,1.9-.2,2.3-1.9,2.3-1.9-.9,.5-2.3,.6-2.3,.6Z" />
	<path fill="#896f52" opacity="0.2" d="M43.9,58.2c-.8-.5-1.7-.8-2.2-.3-1,1-1.6,5.9,.4,9.4,1.5,2.6,4,4.1,5.2,3.9-1.69-4.35-2.93-8.68-3.4-13Z" />
	<path fill="#896f52" opacity="0.2" d="M84.1,58.2c-.16,4.14-1.55,8.52-3.4,13,1.2,.2,3.7-1.2,5.2-3.9,1.9-3.5,1.4-8.3,.4-9.4-.5-.5-1.4-.1-2.2,.3Z" />
	<path fill="#896f52" opacity="0.2" d="M73.05,86.64c-.03-1.59,.02-4.45,.25-6.05-3.7,3.2-6.9,4.1-9.5,4.1s-5.44-.89-9.09-4.01c0,0,0,0,0,0,.1,1.02,.18,2.68,.23,4.02,9.07,5.28,18.12,2.44,18.11,1.93Z" />
</g><path fill="#e83b46" d="M99.9,115.8c-1.1-8.2-7.5-13-14.3-17.1-3.1-1.8-5.8-3.8-8.1-5.6l-13.9,7.2-13.6-6.8c-2.1,1.7-4.7,3.5-7.6,5.3-6.6,4.1-13.1,9-14.3,17.1-1.1,8.2-1.4,12.1-1.4,12.1H101.3c0-.1-.2-4-1.4-12.2Z" /><g>
	<path d="M56.3,58.2c0.9,0.8,1.1,2.5,0.5,3.6c-0.7,1.2-2,1.4-2.9,0.6c-0.9-0.8-1.1-2.5-0.5-3.6C54,57.7,55.3,57.4,56.3,58.2z"/>
	<path d="M71.9,58.2c-0.9,0.8-1.1,2.5-0.5,3.6c0.7,1.2,2,1.4,2.9,0.6c0.9-0.8,1.1-2.5,0.5-3.6C74.1,57.7,72.8,57.4,71.9,58.2z"/>
</g><g>
	<path fill="#202123" d="M57.69,55.11h-7c-.55,0-1-.45-1-1h0c0-.55,8-1,8-1,.55,0,1,.45,1,1h0c0,.55-.45,1-1,1Z" />
	<path fill="#202123" d="M70.42,55.11h7c.55,0,1-.45,1-1h0c0-.55-8-1-8-1-.55,0-1,.45-1,1h0c0,.55,.45,1,1,1Z" />
</g><g>
	<path fill="#852325" d="M68.7,71.4h-9.4c-0.2,0-0.3,0.4-0.2,0.7c0.8,1.6,2.7,2.7,5,2.7c2.1,0,4.1-1.1,4.9-2.6C69.1,71.9,69,71.4,68.7,71.4z"/>
	<path fill="#D02D2F" d="M68,73.4c-0.7-1-2.2-1.6-4-1.6c-1.7,0-3.3,0.7-4,1.6c1,0.9,2.4,1.5,4,1.5C65.5,74.8,67,74.3,68,73.4z"/>
	<path fill="white" d="M68.7,71.4h-9.4c0.3,0.4,0.7,0.9,1.3,1c1,0.2,3.4,0.2,3.4,0.2l0,0l0,0c0,0,2.3,0,3.4-0.2C68,72.3,68.4,71.8,68.7,71.4z"/>
</g><g>
			<path fill="#3a3b40" d="M88.62,40.03s-2.1-.4-2.45-6.74c-.31-5.64-4.9-7.14-4.9-7.14,1.6-1.81,0-4.22,0-4.22-1.1,.7-2.7,1.31-6.39-1.44-3.7-2.75-6.69-1.71-6.69-1.71-2.7-3.36-7.99,.34-7.99,.34,0,0-3.6-1.31-8.99,1.21-5.4,2.51-8.99,8.14-6.91,11.11,0,0-3.63,.26-4.53,5.66-.91,5.4,2.16,10.36-.69,11.68,0,0,1.25,1.15,2.38,.41,0,0,0,0,0,0,0,0,.3,6.88,1.59,9.74l2.29,6.39s-.39-3.74-.69-6.52c-.3-2.79,1.86-5.31,.95-7.43-.2-.46-.38-1.2-.5-2.07-.17-2.85,.91-3.01,.91-4.75s3.71-4.04,3.12-5.75c-.3-.14-.62-.32-.93-.53-.43-.31-1.7-1.91-.94-1.14,.39,.38,.74,.53,1.17,.79,.43,.25,.85,.46,1.23,.56,.16,.05,.3,.08,.43,.1,.6-.07,1.24-.09,1.93-.06,1.47,.17,3.31,.66,5.18,1.77,3.8,2.24,8.46-.3,8.46-.3,0,0,4.08,1.49,8.46-.74,0,0,1.1,1.14,3.73,1.97,2.63,.82,1.27,3.93,2.13,4.94,.62,.72,2.08,2.15,1.95,3.58-.12,.68-.27,1.24-.44,1.62-.91,2.12,1.25,4.65,.95,7.43-.3,2.79,.31,6.52,.31,6.52l1.68-7.08c1.77-8.88,1.27-9.48,1.09-10.62,0,0,.6-2.6,0-7.03,0-.12,0-.25-.01-.37,1.98,.26,3.13-.18,3.13-.18Z" />
            <path fill="#4c4d51" d="M49.19,35.61s-.16-.15-.42-.43c-.24-.29-.61-.72-.94-1.3-.34-.57-.66-1.29-.91-2.09-.09-.41-.23-.83-.26-1.28-.07-.44-.07-.9-.08-1.35,.05-.45,.07-.91,.18-1.35,.07-.45,.25-.85,.39-1.25,.16-.39,.38-.75,.57-1.08,.23-.31,.44-.61,.66-.86,.23-.24,.45-.45,.64-.64,.2-.18,.4-.31,.54-.43,.31-.23,.49-.35,.49-.35,0,0-.14,.18-.38,.46-.12,.15-.28,.31-.43,.52-.15,.22-.31,.46-.5,.72-.17,.27-.32,.58-.5,.88-.14,.33-.3,.67-.43,1.04-.12,.37-.23,.75-.29,1.15-.1,.39-.1,.81-.14,1.22,0,.41-.01,.83,.05,1.23,.03,.41,.11,.8,.18,1.19,.1,.38,.17,.75,.3,1.1,.1,.35,.23,.67,.34,.97,.24,.59,.47,1.08,.65,1.41,.19,.33,.3,.52,.3,.52Z" />
            <path fill="#4c4d51" d="M60.66,23.91s.05-.07,.15-.19c.11-.11,.22-.32,.46-.51,.12-.1,.24-.21,.38-.32,.15-.11,.31-.21,.49-.32,.17-.12,.38-.21,.59-.32,.21-.11,.44-.2,.69-.28,.49-.18,1.03-.31,1.62-.41,.58-.1,1.21-.17,1.85-.16,.64,0,1.31,.03,1.98,.15,.34,.05,.67,.11,1.01,.2,.34,.07,.67,.17,1,.27,.66,.21,1.3,.49,1.91,.81,.61,.34,1.13,.72,1.66,1.03,.51,.29,1.05,.55,1.57,.72,.53,.17,1.04,.28,1.53,.3,.97,.06,1.79-.11,2.32-.34,.54-.22,.8-.44,.8-.44,0,0-.06,.06-.17,.17-.12,.1-.3,.26-.56,.41-.51,.3-1.34,.64-2.4,.65-1.05,.03-2.27-.24-3.45-.86-.56-.31-1.12-.66-1.67-.96-.57-.29-1.17-.54-1.79-.73-.31-.1-.62-.2-.94-.27-.31-.08-.63-.15-.95-.2-.63-.11-1.26-.19-1.87-.21-1.22-.05-2.38,.04-3.32,.29-.24,.05-.46,.13-.67,.2-.21,.07-.42,.13-.6,.23-.18,.09-.36,.16-.51,.24-.15,.09-.28,.18-.4,.26-.25,.14-.41,.33-.54,.42-.12,.1-.19,.16-.19,.16Z" />
            <path fill="#4c4d51" d="M59.63,35.21s-.17-.13-.45-.36c-.14-.11-.3-.27-.47-.46-.18-.19-.39-.41-.56-.67-.09-.13-.19-.27-.29-.41-.08-.15-.17-.31-.26-.47-.19-.32-.33-.68-.48-1.06-.13-.38-.27-.78-.35-1.2-.09-.42-.16-.84-.18-1.28-.04-.43,0-.87,.02-1.3,.05-.43,.12-.85,.25-1.24,.09-.4,.29-.76,.44-1.1,.21-.32,.37-.64,.61-.87,.11-.12,.21-.24,.31-.34,.11-.1,.23-.18,.33-.26,.21-.16,.39-.29,.56-.37,.33-.16,.52-.24,.52-.24,0,0-.16,.14-.43,.37-.15,.1-.29,.27-.45,.46-.17,.17-.32,.41-.48,.66-.18,.23-.28,.55-.44,.85-.1,.33-.24,.65-.3,1.02-.09,.36-.12,.74-.16,1.13-.01,.39-.04,.79,0,1.18,.01,.4,.07,.79,.14,1.18,.07,.39,.16,.76,.26,1.13,.12,.35,.21,.71,.36,1.03,.12,.32,.26,.62,.4,.89,.13,.28,.27,.51,.4,.73,.12,.22,.24,.4,.36,.54,.22,.29,.33,.47,.33,.47Z" />
            <path fill="#4c4d51" d="M68.65,39.27s-.07-.01-.21-.04c-.14-.03-.35-.07-.6-.17-.5-.18-1.21-.53-1.91-1.17-.69-.64-1.36-1.58-1.69-2.75-.33-1.16-.27-2.54,.25-3.74,.25-.6,.59-1.15,.99-1.64,.38-.47,.87-.93,1.36-1.26,1.01-.69,2.16-.95,3.1-.95,.95-.01,1.71,.2,2.22,.37,.51,.17,.77,.33,.77,.33,0,0-.3-.08-.82-.16-.52-.08-1.27-.13-2.14-.02-.86,.11-1.85,.42-2.7,1.06-.44,.32-.81,.67-1.18,1.14-.35,.44-.67,.93-.89,1.45-.23,.52-.37,1.07-.43,1.63-.06,.56,0,1.11,.1,1.64,.23,1.05,.77,1.96,1.35,2.62,.58,.67,1.21,1.1,1.67,1.33,.46,.25,.76,.34,.76,.34Z" />
            <path fill="#4c4d51" d="M54.75,35.31s-.06-.08-.18-.24c-.11-.16-.31-.36-.49-.68-.09-.16-.2-.33-.31-.52-.1-.2-.2-.41-.32-.64-.21-.46-.44-1-.6-1.61-.1-.3-.17-.62-.23-.96-.08-.33-.13-.68-.17-1.04-.1-.72-.12-1.49-.08-2.29,.08-.79,.18-1.62,.46-2.43,.25-.81,.66-1.6,1.17-2.3,.5-.7,1.27-1.28,1.95-1.68,.79-.45,1.63-.63,2.44-.68,.81-.06,1.57,.04,2.27,.15,.7,.1,1.36,.2,1.96,.23,.6,.04,1.15,.01,1.64-.04,.24-.05,.47-.09,.67-.13,.21-.05,.39-.13,.56-.18,.34-.1,.58-.25,.76-.33,.18-.08,.27-.13,.27-.13,0,0-.09,.06-.25,.16-.17,.09-.38,.3-.72,.43-.17,.07-.35,.17-.55,.25-.21,.07-.44,.14-.68,.22-.5,.11-1.08,.21-1.71,.19-1.26,.02-2.71-.26-4.17-.12-.72,.07-1.46,.28-2.08,.63-.16,.08-.33,.22-.5,.33l-.25,.17s-.13,.12-.19,.18c-.14,.13-.29,.25-.42,.39l-.37,.45c-.46,.62-.84,1.31-1.08,2.06-.26,.73-.4,1.5-.49,2.24-.06,.75-.1,1.48-.04,2.17,.02,.35,.04,.69,.1,1.01,.04,.33,.09,.64,.16,.94,.12,.6,.28,1.14,.44,1.61,.09,.23,.17,.45,.24,.66,.09,.2,.17,.37,.25,.54,.14,.33,.3,.57,.39,.74,.1,.17,.15,.26,.15,.26Z" />
            <path fill="#4c4d51" d="M43.69,34.19s-.04,.04-.12,.11c-.07,.08-.14,.2-.21,.38-.14,.35-.18,.91-.22,1.56-.06,1.32-.02,3.1-.11,4.9-.1,1.79-.33,3.61-.85,4.91-.25,.65-.59,1.13-.86,1.42-.28,.29-.51,.37-.49,.38,0,0,.04-.04,.11-.12,.08-.07,.16-.2,.26-.36,.21-.32,.4-.83,.55-1.47,.3-1.27,.4-3.04,.49-4.81,.1-1.77,.18-3.57,.45-4.91,.13-.67,.32-1.22,.53-1.57,.22-.37,.48-.41,.46-.42Z" />
            <path fill="#4c4d51" d="M47.42,39.48s-.19,.14-.49,.41c-.15,.13-.32,.3-.5,.51-.19,.2-.37,.46-.58,.72-.19,.28-.4,.58-.58,.92-.2,.33-.36,.7-.54,1.08-.16,.39-.31,.79-.43,1.21-.15,.41-.21,.86-.31,1.29-.06,.44-.16,.88-.17,1.32-.02,.22-.03,.44-.05,.65,0,.22,0,.43,0,.64,0,.42,.01,.83,.05,1.22,.02,.39,.05,.76,.11,1.1,.05,.34,.07,.66,.12,.93,.05,.28,.1,.52,.13,.71,.07,.4,.1,.63,.1,.63,0,0-.1-.21-.25-.59-.15-.38-.39-.92-.55-1.6-.05-.17-.1-.35-.15-.53-.03-.19-.07-.38-.1-.58-.08-.4-.15-.82-.16-1.27-.04-.44-.05-.9-.02-1.37,0-.47,.1-.94,.15-1.42,.12-.46,.2-.94,.36-1.38,.13-.45,.34-.87,.53-1.28,.21-.39,.42-.77,.67-1.1,.23-.34,.49-.62,.73-.89,.5-.51,.98-.85,1.34-1.06,.17-.12,.32-.16,.42-.21,.1-.04,.15-.07,.15-.07Z" />
            <path fill="#4c4d51" d="M71.97,36.56s-.04-.08-.12-.24c-.07-.16-.19-.39-.28-.71-.19-.63-.39-1.59-.18-2.74,.11-.57,.32-1.19,.69-1.76,.37-.57,.9-1.11,1.56-1.46,.66-.37,1.41-.56,2.18-.65,.76-.07,1.55-.03,2.31,.11,.79,.15,1.54,.49,2.16,1,.62,.51,1.07,1.15,1.41,1.79,.35,.63,.61,1.26,.85,1.86,.25,.59,.48,1.14,.74,1.62,.5,.97,1.04,1.72,1.49,2.18,.45,.46,.74,.7,.74,.7,0,0-.08-.05-.23-.14-.15-.09-.37-.23-.62-.44-.51-.41-1.2-1.09-1.78-2.07-.6-.96-1.14-2.18-1.81-3.35-.34-.58-.76-1.12-1.28-1.54-.52-.42-1.16-.68-1.82-.82-.7-.14-1.4-.18-2.1-.13-.68,.05-1.35,.2-1.92,.49-.57,.29-1.06,.69-1.42,1.17-.36,.48-.59,1.02-.72,1.53-.27,1.04-.22,1.98-.1,2.61,.06,.32,.12,.56,.18,.73,.06,.17,.09,.25,.09,.25Z" />
            <path fill="#4c4d51" d="M82.12,28.35s.14,0,.37,.07c.23,.07,.56,.2,.9,.44,.17,.12,.35,.27,.51,.45,.16,.18,.33,.37,.47,.6,.29,.44,.52,.96,.67,1.49,.09,.27,.13,.54,.18,.81,.06,.27,.07,.53,.09,.79,.05,.51,0,.99-.02,1.4,0,.2-.05,.39-.08,.55-.03,.16-.05,.3-.07,.42-.04,.23-.08,.36-.08,.36,0,0-.02-.14-.04-.37,0-.12-.02-.26-.03-.42-.02-.16-.02-.35-.04-.54-.05-.4-.07-.86-.16-1.34-.03-.24-.07-.49-.13-.74-.05-.25-.1-.5-.18-.75-.13-.5-.33-.97-.54-1.39-.23-.41-.48-.78-.75-1.05-.53-.56-1.04-.77-1.04-.77Z" />
            <path fill="#4c4d51" d="M80.67,39.85s0,.05,0,.16c0,.1-.03,.26,0,.44,.04,.19,.04,.39,.12,.65,.07,.25,.14,.53,.23,.84,.37,1.22,.96,2.84,1.44,4.51,.23,.84,.45,1.68,.58,2.5,.09,.4,.11,.81,.15,1.18,.03,.38,.03,.74,.03,1.07-.04,.34-.05,.64-.12,.91-.08,.26-.13,.49-.21,.67-.19,.34-.31,.52-.31,.52,0,0,.06-.22,.16-.57,.04-.18,.04-.41,.06-.66,.01-.25-.04-.55-.04-.86-.05-.31-.1-.65-.16-1.01-.08-.36-.15-.73-.25-1.12-.19-.77-.42-1.6-.66-2.42-.46-1.65-.94-3.33-1.12-4.63-.06-.32-.07-.63-.08-.9-.03-.26,.02-.52,.02-.71,0-.2,.09-.33,.11-.43,.03-.1,.05-.15,.05-.15Z" />
            <path fill="#4c4d51" d="M82.12,42.56s.23,.52,.58,1.3c.34,.78,.77,1.84,1.01,2.99,.11,.57,.18,1.16,.17,1.72,0,.55-.09,1.08-.22,1.5-.05,.22-.15,.4-.21,.56-.06,.17-.15,.3-.22,.41-.14,.21-.22,.33-.22,.33,0,0,.03-.14,.08-.39,.03-.12,.06-.27,.07-.44,.02-.17,.06-.35,.06-.56,.02-.41,.02-.88-.03-1.39,0-.25-.07-.51-.1-.78-.05-.27-.09-.53-.15-.8-.21-1.08-.51-2.16-.66-3.01-.08-.42-.12-.79-.14-1.04,0-.25,0-.4,0-.4Z" />
		</g><path fill="#202123" d="M78.96,70.2c-.72,.93-2.43,2.55-4.22,4.11-.37,.32-1.08,.12-1.07-.3,.12-2.76-.41-3.04-1.8-3.11-1.9-.09-5.51-1.01-6.04-.79-.16,.07-.39,.14-.64,.21-.77,.22-1.62,.22-2.39,0-.25-.07-.48-.15-.64-.21-.53-.22-4.15,.7-6.04,.79-1.38,.06-1.91,.35-1.8,3.11,.02,.42-.69,.63-1.07,.3-1.8-1.56-3.5-3.17-4.22-4.11-1.61-2.08-3.72-5.04-3.72-5.04,.07,1.43,1.73,9.44,3.42,11.62,1.67,2.15,8.41,5.82,9.86,6.29,1.44,.47,2.69,.8,5.4,.8s3.96-.33,5.4-.8c1.45-.47,8.19-4.14,9.86-6.29,1.69-2.18,3.52-10.15,3.59-11.58,0,0-2.27,2.92-3.89,5Zm-6.67,6.01c-.06,.79-.52,1.55-1.29,2.11-.77,.56-1.38,.95-1.72,1.06-1.29,.42-2.43,.08-4.63-.17-.12-.13-.21-.27-.23-.44-.12-1.08,.12-1.01,.79-1.1,.67-.09,2.33-1.81-1.22-1.81s-1.9,1.72-1.22,1.81c.67,.09,.91,.02,.79,1.1-.02,.17-.11,.31-.23,.44-2.2,.24-3.34,.59-4.63,.17-.33-.11-.95-.5-1.72-1.06-.77-.56-1.22-1.31-1.29-2.11-.19-2.34-.13-3.31,1.37-3.52,2.2-.31,4.22-.48,6.17-.09,.5,.1,1.02,.1,1.52,0,1.95-.39,3.97-.22,6.17,.09,1.49,.21,1.56,1.18,1.37,3.52Z" /></g></svg>