<?xml version="1.0" encoding="utf-8"?><!DOCTYPE svg PUBLIC "-//W3C//DTD SVG 1.1//EN" "http://www.w3.org/Graphics/SVG/1.1/DTD/svg11.dtd"><svg viewBox="0 0 128 128" xmlns="http://www.w3.org/2000/svg" xmlns:xlink="http://www.w3.org/1999/xlink"><desc>Created with https://github.com/gomig/avatar</desc><defs></defs><circle fill="#88d0ca" cx="64" cy="64" r="60"/><mask id="mask-9d292ae6-d7a4-4a47-9710-4941d688cc4f"><path fill="white" d="M0,0V64H4c0,33.14,26.86,60,60,60s60-26.86,60-60h4V0H0Z"/></mask><g mask="url(#mask-9d292ae6-d7a4-4a47-9710-4941d688cc4f)">
<g>
	<path fill="#ceaa82" d="M99.6,116.1c-1.1-8.1-7.5-12.9-14.2-17-6.2-3.8-11.3-7.6-12.3-11.4-.1-.7-.1-5,.2-7.1,1.1-.9,2.2-2,3.5-3.4,1.4-1.6,2.7-3.7,3.9-6,1.2,.2,3.7-1.2,5.2-3.9,1.9-3.5,1.4-8.3,.4-9.4-.5-.5-1.4-.1-2.2,.3,.3-3.5,.4-7.2,.1-11.3-1-14.3-11.3-18.2-20.2-18.2s-19,3.9-20.2,18.2c-.3,4.1-.3,7.8,.1,11.3-.8-.5-1.7-.8-2.2-.3-1,1-1.6,5.9,.4,9.4,1.5,2.6,4,4.1,5.2,3.9,1.1,2.3,2.3,4.4,3.9,6,1.2,1.3,2.3,2.4,3.5,3.4,.2,1.9,.3,6.3,.3,6.3-.4,4.1-5.8,8-12.4,12.1s-13,8.9-14.2,17c-1.1,8.1-1.4,12-1.4,12H101c0,.1-.2-3.8-1.4-11.9Z" />
	<path fill="#896f52" d="M64,67.5s-1.4-.1-2.3-.6c0,0,.4,1.8,2.3,1.9,1.9-.2,2.3-1.9,2.3-1.9-.9,.5-2.3,.6-2.3,.6Z" />
	<path fill="#896f52" opacity="0.2" d="M43.9,58.2c-.8-.5-1.7-.8-2.2-.3-1,1-1.6,5.9,.4,9.4,1.5,2.6,4,4.1,5.2,3.9-1.69-4.35-2.93-8.68-3.4-13Z" />
	<path fill="#896f52" opacity="0.2" d="M84.1,58.2c-.16,4.14-1.55,8.52-3.4,13,1.2,.2,3.7-1.2,5.2-3.9,1.9-3.5,1.4-8.3,.4-9.4-.5-.5-1.4-.1-2.2,.3Z" />
	<path fill="#896f52" opacity="0.2" d="M73.05,86.64c-.03-1.59,.02-4.45,.25-6.05-3.7,3.2-6.9,4.1-9.5,4.1s-5.44-.89-9.09-4.01c0,0,0,0,0,0,.1,1.02,.18,2.68,.23,4.02,9.07,5.28,18.12,2.44,18.11,1.93Z" />
</g><g>
	<path fill="#0f3630" d="M99.9,115.8c-1.1-8.2-7.5-13-14.3-17.1-3.1-1.8-5.8-3.8-8.1-5.6-3.1,4.4-8.1,7.2-13.9,7.2s-10.6-2.7-13.6-6.8c-2.1,1.7-4.7,3.5-7.6,5.3-6.6,4.1-13.1,9-14.3,17.1-1.1,8.2-1.4,12.1-1.4,12.1H101.3c0-.1-.2-4-1.4-12.2Z" />
	<path fill="#002621" d="M78.9,94.1c-.4-.3-.8-.7-1.2-1-3.1,4.4-8.1,7.2-13.9,7.2s-10.6-2.7-13.6-6.8c-.4,.3-.8,.7-1.3,1,2.9,5.3,8.6,9,15,9,6.4-.1,12.2-3.9,15-9.4Z" />
</g><g>
	<path d="M56.3,58.2c0.9,0.8,1.1,2.5,0.5,3.6c-0.7,1.2-2,1.4-2.9,0.6c-0.9-0.8-1.1-2.5-0.5-3.6C54,57.7,55.3,57.4,56.3,58.2z"/>
	<path d="M71.9,58.2c-0.9,0.8-1.1,2.5-0.5,3.6c0.7,1.2,2,1.4,2.9,0.6c0.9-0.8,1.1-2.5,0.5-3.6C74.1,57.7,72.8,57.4,71.9,58.2z"/>
</g><g>
	<path fill="#202123" d="M57.69,55.11h-7c-.55,0-1-.45-1-1h0c0-.55,8-1,8-1,.55,0,1,.45,1,1h0c0,.55-.45,1-1,1Z" />
	<path fill="#202123" d="M70.42,55.11h7c.55,0,1-.45,1-1h0c0-.55-8-1-8-1-.55,0-1,.45-1,1h0c0,.55,.45,1,1,1Z" />
</g><g>
	<path fill="#852325" d="M68.7,71.4h-9.4c-0.2,0-0.3,0.4-0.2,0.7c0.8,1.6,2.7,2.7,5,2.7c2.1,0,4.1-1.1,4.9-2.6C69.1,71.9,69,71.4,68.7,71.4z"/>
	<path fill="#D02D2F" d="M68,73.4c-0.7-1-2.2-1.6-4-1.6c-1.7,0-3.3,0.7-4,1.6c1,0.9,2.4,1.5,4,1.5C65.5,74.8,67,74.3,68,73.4z"/>
	<path fill="white" d="M68.7,71.4h-9.4c0.3,0.4,0.7,0.9,1.3,1c1,0.2,3.4,0.2,3.4,0.2l0,0l0,0c0,0,2.3,0,3.4-0.2C68,72.3,68.4,71.8,68.7,71.4z"/>
</g><path opacity="0.85" d="M73.57,51.92c-3.1,0-5.7,2.1-6.48,4.95-.72-.87-1.82-1.43-3.04-1.43s-2.38,.59-3.1,1.51c-.76-2.89-3.38-5.03-6.5-5.03-3.72,0-6.73,3.01-6.73,6.73s3.01,6.73,6.73,6.73c3.46,0,6.31-2.61,6.68-5.98h.03c0-1.59,1.3-2.89,2.89-2.89,1.36,0,2.49,.94,2.8,2.21,.04,3.68,3.03,6.66,6.73,6.66s6.73-3.01,6.73-6.73-3.01-6.73-6.73-6.73Z" /><path fill="#3a3b40" d="M43.7,58.15s2.04-.21,2.84-10.86c1.16-15.59,9.77-4.93,17.96-4.83,7.98,.1,15.76-10.96,17.54,5.03,1.02,9.18,2.06,10.71,2.06,10.71,0,0,8.94-32.03-20.13-32.03s-20.27,31.99-20.27,31.99Z" /><path fill="#202123" d="M78.96,70.2c-.72,.93-2.43,2.55-4.22,4.11-.37,.32-1.08,.12-1.07-.3,.12-2.76-.41-3.04-1.8-3.11-1.9-.09-5.51-1.01-6.04-.79-.16,.07-.39,.14-.64,.21-.77,.22-1.62,.22-2.39,0-.25-.07-.48-.15-.64-.21-.53-.22-4.15,.7-6.04,.79-1.38,.06-1.91,.35-1.8,3.11,.02,.42-.69,.63-1.07,.3-1.8-1.56-3.5-3.17-4.22-4.11-1.61-2.08-3.72-5.04-3.72-5.04,.07,1.43,1.73,9.44,3.42,11.62,1.67,2.15,8.41,5.82,9.86,6.29,1.44,.47,2.69,.8,5.4,.8s3.96-.33,5.4-.8c1.45-.47,8.19-4.14,9.86-6.29,1.69-2.18,3.52-10.15,3.59-11.58,0,0-2.27,2.92-3.89,5Zm-6.67,6.01c-.06,.79-.52,1.55-1.29,2.11-.77,.56-1.38,.95-1.72,1.06-1.29,.42-2.43,.08-4.63-.17-.12-.13-.21-.27-.23-.44-.12-1.08,.12-1.01,.79-1.1,.67-.09,2.33-1.81-1.22-1.81s-1.9,1.72-1.22,1.81c.67,.09,.91,.02,.79,1.1-.02,.17-.11,.31-.23,.44-2.2,.24-3.34,.59-4.63,.17-.33-.11-.95-.5-1.72-1.06-.77-.56-1.22-1.31-1.29-2.11-.19-2.34-.13-3.31,1.37-3.52,2.2-.31,4.22-.48,6.17-.09,.5,.1,1.02,.1,1.52,0,1.95-.39,3.97-.22,6.17,.09,1.49,.21,1.56,1.18,1.37,3.52Z" /></g></svg>