<?xml version="1.0" encoding="utf-8"?><!DOCTYPE svg PUBLIC "-//W3C//DTD SVG 1.1//EN" "http://www.w3.org/Graphics/SVG/1.1/DTD/svg11.dtd"><svg viewBox="0 0 128 128" xmlns="http://www.w3.org/2000/svg" xmlns:xlink="http://www.w3.org/1999/xlink"><desc>Created with https://github.com/gomig/avatar</desc><defs></defs><rect fill="#a2cced" x="4" y="4" width="128" height="128"/><g>
<g>
	<path fill="#fbdad0" d="M99.6,116.1c-1.1-8.1-7.5-12.9-14.2-17-6.2-3.8-11.3-7.6-12.3-11.4-.1-.7-.1-5,.2-7.1,1.1-.9,2.2-2,3.5-3.4,1.4-1.6,2.7-3.7,3.9-6,1.2,.2,3.7-1.2,5.2-3.9,1.9-3.5,1.4-8.3,.4-9.4-.5-.5-1.4-.1-2.2,.3,.3-3.5,.4-7.2,.1-11.3-1-14.3-11.3-18.2-20.2-18.2s-19,3.9-20.2,18.2c-.3,4.1-.3,7.8,.1,11.3-.8-.5-1.7-.8-2.2-.3-1,1-1.6,5.9,.4,9.4,1.5,2.6,4,4.1,5.2,3.9,1.1,2.3,2.3,4.4,3.9,6,1.2,1.3,2.3,2.4,3.5,3.4,.2,1.9,.3,6.3,.3,6.3-.4,4.1-5.8,8-12.4,12.1s-13,8.9-14.2,17c-1.1,8.1-1.4,12-1.4,12H101c0,.1-.2-3.8-1.4-11.9Z" />
	<path fill="#84706d" d="M64,67.5s-1.4-.1-2.3-.6c0,0,.4,1.8,2.3,1.9,1.9-.2,2.3-1.9,2.3-1.9-.9,.5-2.3,.6-2.3,.6Z" />
	<path fill="#84706d" opacity="0.2" d="M43.9,58.2c-.8-.5-1.7-.8-2.2-.3-1,1-1.6,5.9,.4,9.4,1.5,2.6,4,4.1,5.2,3.9-1.69-4.35-2.93-8.68-3.4-13Z" />
	<path fill="#84706d" opacity="0.2" d="M84.1,58.2c-.16,4.14-1.55,8.52-3.4,13,1.2,.2,3.7-1.2,5.2-3.9,1.9-3.5,1.4-8.3,.4-9.4-.5-.5-1.4-.1-2.2,.3Z" />
	<path fill="#84706d" opacity="0.2" d="M73.05,86.64c-.03-1.59,.02-4.45,.25-6.05-3.7,3.2-6.9,4.1-9.5,4.1s-5.44-.89-9.09-4.01c0,0,0,0,0,0,.1,1.02,.18,2.68,.23,4.02,9.07,5.28,18.12,2.44,18.11,1.93Z" />
</g><path fill="#006fc8" d="M99.9,115.8c-1.1-8.2-7.5-13-14.3-17.1-3.1-1.8-5.8-3.8-8.1-5.6l-13.9,7.2-13.6-6.8c-2.1,1.7-4.7,3.5-7.6,5.3-6.6,4.1-13.1,9-14.3,17.1-1.1,8.2-1.4,12.1-1.4,12.1H101.3c0-.1-.2-4-1.4-12.2Z" /><g>
	<path d="M56.3,58.2c0.9,0.8,1.1,2.5,0.5,3.6c-0.7,1.2-2,1.4-2.9,0.6c-0.9-0.8-1.1-2.5-0.5-3.6C54,57.7,55.3,57.4,56.3,58.2z"/>
	<path d="M71.9,58.2c-0.9,0.8-1.1,2.5-0.5,3.6c0.7,1.2,2,1.4,2.9,0.6c0.9-0.8,1.1-2.5,0.5-3.6C74.1,57.7,72.8,57.4,71.9,58.2z"/>
</g><g>
	<path fill="#202123" d="M57.69,55.11h-7c-.55,0-1-.45-1-1h0c0-.55,8-1,8-1,.55,0,1,.45,1,1h0c0,.55-.45,1-1,1Z" />
	<path fill="#202123" d="M70.42,55.11h7c.55,0,1-.45,1-1h0c0-.55-8-1-8-1-.55,0-1,.45-1,1h0c0,.55,.45,1,1,1Z" />
</g><g>
	<path fill="#852325" d="M68.7,71.4h-9.4c-0.2,0-0.3,0.4-0.2,0.7c0.8,1.6,2.7,2.7,5,2.7c2.1,0,4.1-1.1,4.9-2.6C69.1,71.9,69,71.4,68.7,71.4z"/>
	<path fill="#D02D2F" d="M68,73.4c-0.7-1-2.2-1.6-4-1.6c-1.7,0-3.3,0.7-4,1.6c1,0.9,2.4,1.5,4,1.5C65.5,74.8,67,74.3,68,73.4z"/>
	<path fill="white" d="M68.7,71.4h-9.4c0.3,0.4,0.7,0.9,1.3,1c1,0.2,3.4,0.2,3.4,0.2l0,0l0,0c0,0,2.3,0,3.4-0.2C68,72.3,68.4,71.8,68.7,71.4z"/>
</g><g>
			<path fill="#3a3b40" d="M96.95,47.77c.07-1.89,1.28-3.52,1.88-5.32,.97-2.89,.18-6.29-1.95-8.46-1.36-1.38-3.24-2.34-4.09-4.08-1.2-2.46,.06-5.72-1.5-7.97-1.85-2.67-6.18-1.96-8.68-4.04-1.42-1.19-2.03-3.11-3.31-4.45-1.51-1.58-3.94-2.18-6.01-1.5-1.2,.4-2.36,1.2-3.61,.98-1.06-.18-1.84-1.07-2.77-1.61-1.31-.76-2.69-.62-4.08-.22-2.21,.64-1.77,.97-4.15,.3-2.92-.81-6.35-1.51-8.72,.98-1.6,1.69-2.1,4.44-4.17,5.49-1.13,.56-2.47,.47-3.71,.71-2.61,.52-4.8,2.73-5.29,5.34-.49,2.6,.45,5.71-1.35,7.66-.71,.77-1.72,1.18-2.57,1.79-1.78,1.3-2.74,3.63-2.41,5.8,.35,2.3,2.01,4.26,2.21,6.57,.19,2.15-.91,4.21-2.16,5.97-1.25,1.77-2.71,3.44-3.41,5.49-.71,2.04-.43,4.64,1.31,5.91,.79,.58,1.81,.84,2.67,1.29,.39,.21,.75,.45,1.05,.79,.98,1.11,.87,2.79,.8,4.27-.17,3.68,.78,8.1,4.22,9.41,1.98,.76,4.47,.32,6.03,1.76,1.11,1.03,1.33,2.68,2.08,3.99,1.74,3.07,5.76,3.72,9.31,3.97,.25-.58,.42-1.15,.47-1.74,0,0-.1-4.4-.3-6.3-1.2-1-2.3-2.1-3.5-3.4-1.6-1.6-2.8-3.7-3.9-6-1.2,.2-3.7-1.3-5.2-3.9-2-3.5-1.4-8.4-.4-9.4,.5-.5,1.4-.2,2.2,.3-.4-3.5-.4-7.2-.1-11.3,.21-2.48,.69-4.63,1.38-6.52,1.46,.29,3.03,.48,4.16,1.17,1.19,.73,1.7,1.91,2.77,2.74,1.26,.97,3.31,1.34,5.04,.92,1.01-.25,1.98-.74,3.02-.6,.89,.11,1.54,.66,2.32,.99,1.1,.47,2.26,.38,3.42,.13,1.86-.39,1.48-.6,3.48-.18,2.45,.5,5.33,.93,7.31-.6,1.34-1.04,1.76-2.73,3.5-3.37,.89-.33,1.94-.3,2.93-.42,.53,1.7,.89,3.6,1.04,5.75,.3,4.1,.2,7.8-.1,11.3,.8-.4,1.7-.8,2.2-.3,1,1.1,1.5,5.9-.4,9.4-1.5,2.7-4,4.1-5.2,3.9-1.2,2.3-2.5,4.4-3.9,6-1.3,1.4-2.4,2.5-3.5,3.4-.3,2.1-.3,6.4-.2,7.1,.11,.42,.28,.83,.48,1.25,3.18-.77,6.14-2.47,8.39-4.85,1.61-1.7,2.91-3.77,4.94-4.97,1.97-1.16,4.51-1.41,6.07-3.08,2.54-2.71,.96-7.2,2.18-10.7,.45-1.29,1.27-2.45,2.09-3.59,1.24-1.71,2.48-3.38,2.46-5.41-.02-3.04-2.91-5.53-2.81-8.56Z" />
			<path fill="#202123" d="M92.79,29.91c-1.2-2.46,.06-5.72-1.5-7.97-1.85-2.67-6.18-1.96-8.68-4.04-1.42-1.19-2.03-3.11-3.31-4.45-1.51-1.58-3.94-2.18-6.01-1.5-1.2,.4-2.36,1.2-3.61,.98-1.06-.18-1.84-1.07-2.77-1.61-1.31-.76-2.69-.62-4.08-.22-2.21,.64-1.77,.97-4.15,.3-2.92-.81-6.35-1.51-8.72,.98-1.6,1.69-2.1,4.44-4.17,5.49-1.13,.56-2.47,.47-3.71,.71-1.49,.3-2.83,1.16-3.81,2.32,.1,.2-.17,.53-.4,.51-.53,.76-.92,1.61-1.09,2.52-.49,2.6,.45,5.71-1.35,7.66-.71,.77-1.72,1.18-2.57,1.79-.93,.68-1.64,1.65-2.05,2.74,.49,.68,.18,2.03-.41,2.33,0,.25,.02,.49,.06,.74,.35,2.3,2.01,4.26,2.21,6.57,.02,.24,.02,.47,.01,.71,.54,.31,1.11,.53,1.7,.64,.23,6.43,10.63,3.8,11.98-1.6,.08,7.83,8.78,.35,8.94-3.99,1.29,9.81,10,2.96,11.2-2.91,1.78,3.92,9.56,5.68,12.66,3.6,.09-.08,.19-.14,.28-.21,1.07-.9,1.4-2.37,.35-4.53,5.96,4.53,19.01,3.35,12.72-5.19,.78-.03,1.46-.12,2.06-.24-.73-.62-1.39-1.28-1.8-2.13Z" />
			<path fill="#202123" d="M84.15,58.17c.8-.4,1.7-.8,2.2-.3,1,1.1,1.5,5.9-.4,9.4-.94,1.7-2.29,2.88-3.45,3.48-.69,.36-1.31,.51-1.76,.45-1.2,2.29-2.49,4.38-3.89,5.98-1.3,1.4-2.4,2.5-3.5,3.4-.3,2.1-.3,6.4-.2,7.1,.11,.42,.28,.83,.48,1.25,3.18-.77,6.14-2.47,8.39-4.85,1.61-1.7,2.91-3.77,4.94-4.97,1.97-1.16,4.51-1.41,6.07-3.08,2.54-2.71,.96-7.2,2.18-10.7,.45-1.29,1.27-2.45,2.09-3.59-2.94,2.58-5.25,4.98-6.3-.92-.55-3.08,.6-7.34-2.34-9.51-1.25-.92-3.02-1.17-4.28-1.96,.11,3.13,.01,6.04-.23,8.82Z" />
		</g><path fill="#202123" d="M78.96,73.2c-.72,.93-2.43,2.55-4.22,4.11-.37,.32-1.08,.12-1.07-.3,.12-2.76-.41-6.04-1.8-6.11-1.9-.09-5.51-1.01-6.04-.79-.16,.07-.39,.14-.64,.21-.77,.22-1.62,.22-2.39,0-.25-.07-.48-.15-.64-.21-.53-.22-4.15,.7-6.04,.79-1.38,.06-1.91,3.35-1.8,6.11,.02,.42-.69,.63-1.07,.3-1.8-1.56-3.5-3.17-4.22-4.11-1.61-2.08-3.72-8.04-3.72-8.04,.07,1.43,1.73,9.44,3.42,11.62,1.67,2.15,8.41,5.82,9.86,6.29,1.44,.47,2.69,.8,5.4,.8s3.96-.33,5.4-.8c1.45-.47,8.19-4.14,9.86-6.29,1.69-2.18,3.52-10.15,3.59-11.58,0,0-2.27,5.92-3.89,8Zm-6.67,5.01c-.06,.79-.52,1.55-1.29,2.11-.77,.56-1.38,.95-1.72,1.06-1.29,.42-2.43-.92-4.63-1.17-.12-.13-.21-.27-.23-.44-.12-1.08,.12-2.01,.79-2.1,.67-.09,2.33-1.81-1.22-1.81s-1.9,1.72-1.22,1.81c.67,.09,.91,1.02,.79,2.1-.02,.17-.11,.31-.23,.44-2.2,.24-3.34,1.59-4.63,1.17-.33-.11-.95-.5-1.72-1.06-.77-.56-1.22-1.31-1.29-2.11-.19-2.34-.13-5.31,1.37-5.52,2.2-.31,4.22-.48,6.17-.09,.5,.1,1.02,.1,1.52,0,1.95-.39,3.97-.22,6.17,.09,1.49,.21,1.56,3.18,1.37,5.52Z" /></g></svg>