<?xml version="1.0" encoding="utf-8"?><!DOCTYPE svg PUBLIC "-//W3C//DTD SVG 1.1//EN" "http://www.w3.org/Graphics/SVG/1.1/DTD/svg11.dtd"><svg viewBox="0 0 128 128" xmlns="http://www.w3.org/2000/svg" xmlns:xlink="http://www.w3.org/1999/xlink"><desc>Created with https://github.com/gomig/avatar</desc><defs></defs><circle fill="#ffcc5c" cx="64" cy="64" r="60"/><mask id="mask-fd0ec3f0-7a62-459c-9cf3-dc930f4e7cd2"><path fill="white" d="M0,0V64H4c0,33.14,26.86,60,60,60s60-26.86,60-60h4V0H0Z"/></mask><g mask="url(#mask-fd0ec3f0-7a62-459c-9cf3-dc930f4e7cd2)">
<g>
	<path fill="#b06f51" d="M99.6,116.1c-1.1-8.1-7.5-12.9-14.2-17-6.2-3.8-11.3-7.6-12.3-11.4-.1-.7-.1-5,.2-7.1,1.1-.9,2.2-2,3.5-3.4,1.4-1.6,2.7-3.7,3.9-6,1.2,.2,3.7-1.2,5.2-3.9,1.9-3.5,1.4-8.3,.4-9.4-.5-.5-1.4-.1-2.2,.3,.3-3.5,.4-7.2,.1-11.3-1-14.3-11.3-18.2-20.2-18.2s-19,3.9-20.2,18.2c-.3,4.1-.3,7.8,.1,11.3-.8-.5-1.7-.8-2.2-.3-1,1-1.6,5.9,.4,9.4,1.5,2.6,4,4.1,5.2,3.9,1.1,2.3,2.3,4.4,3.9,6,1.2,1.3,2.3,2.4,3.5,3.4,.2,1.9,.3,6.3,.3,6.3-.4,4.1-5.8,8-12.4,12.1s-13,8.9-14.2,17c-1.1,8.1-1.4,12-1.4,12H101c0,.1-.2-3.8-1.4-11.9Z" />
	<path fill="#3d261d" d="M64,67.5s-1.4-.1-2.3-.6c0,0,.4,1.8,2.3,1.9,1.9-.2,2.3-1.9,2.3-1.9-.9,.5-2.3,.6-2.3,.6Z" />
	<path fill="#3d261d" opacity="0.2" d="M43.9,58.2c-.8-.5-1.7-.8-2.2-.3-1,1-1.6,5.9,.4,9.4,1.5,2.6,4,4.1,5.2,3.9-1.69-4.35-2.93-8.68-3.4-13Z" />
	<path fill="#3d261d" opacity="0.2" d="M84.1,58.2c-.16,4.14-1.55,8.52-3.4,13,1.2,.2,3.7-1.2,5.2-3.9,1.9-3.5,1.4-8.3,.4-9.4-.5-.5-1.4-.1-2.2,.3Z" />
	<path fill="#3d261d" opacity="0.2" d="M73.05,86.64c-.03-1.59,.02-4.45,.25-6.05-3.7,3.2-6.9,4.1-9.5,4.1s-5.44-.89-9.09-4.01c0,0,0,0,0,0,.1,1.02,.18,2.68,.23,4.02,9.07,5.28,18.12,2.44,18.11,1.93Z" />
</g><path fill="#f47521" d="M99.9,115.8c-1.1-8.2-7.5-13-14.3-17.1-3.1-1.8-5.8-3.8-8.1-5.6l-13.9,7.2-13.6-6.8c-2.1,1.7-4.7,3.5-7.6,5.3-6.6,4.1-13.1,9-14.3,17.1-1.1,8.2-1.4,12.1-1.4,12.1H101.3c0-.1-.2-4-1.4-12.2Z" /><g>
	<path d="M56.3,58.2c0.9,0.8,1.1,2.5,0.5,3.6c-0.7,1.2-2,1.4-2.9,0.6c-0.9-0.8-1.1-2.5-0.5-3.6C54,57.7,55.3,57.4,56.3,58.2z"/>
	<path d="M71.9,58.2c-0.9,0.8-1.1,2.5-0.5,3.6c0.7,1.2,2,1.4,2.9,0.6c0.9-0.8,1.1-2.5,0.5-3.6C74.1,57.7,72.8,57.4,71.9,58.2z"/>
</g><g>
	<path fill="#202123" d="M57.69,55.11h-7c-.55,0-1-.45-1-1h0c0-.55,8-1,8-1,.55,0,1,.45,1,1h0c0,.55-.45,1-1,1Z" />
	<path fill="#202123" d="M70.42,55.11h7c.55,0,1-.45,1-1h0c0-.55-8-1-8-1-.55,0-1,.45-1,1h0c0,.55,.45,1,1,1Z" />
</g><g>
	<path fill="#852325" d="M68.7,71.4h-9.4c-0.2,0-0.3,0.4-0.2,0.7c0.8,1.6,2.7,2.7,5,2.7c2.1,0,4.1-1.1,4.9-2.6C69.1,71.9,69,71.4,68.7,71.4z"/>
	<path fill="#D02D2F" d="M68,73.4c-0.7-1-2.2-1.6-4-1.6c-1.7,0-3.3,0.7-4,1.6c1,0.9,2.4,1.5,4,1.5C65.5,74.8,67,74.3,68,73.4z"/>
	<path fill="white" d="M68.7,71.4h-9.4c0.3,0.4,0.7,0.9,1.3,1c1,0.2,3.4,0.2,3.4,0.2l0,0l0,0c0,0,2.3,0,3.4-0.2C68,72.3,68.4,71.8,68.7,71.4z"/>
</g><path opacity="0.85" d="M80.85,54.97c-1.07-1.61-3.2-2.51-6.32-2.66h-.03c-.32-.02-.65-.03-1-.03s-.66,.01-.98,.03h-17.08c-.32-.02-.65-.03-.99-.03-3.63,0-6.08,.9-7.27,2.68-1.04,1.54-1.06,3.65-.06,6.09,1.74,4.28,3.39,5.51,7.34,5.51s5.52-1.18,7.34-5.51c.66-1.57,.89-3,.71-4.23,.96-.4,2.05-.4,3.02,0-.2,1.23,.02,2.66,.66,4.22,1.74,4.28,3.38,5.51,7.34,5.51s5.52-1.18,7.34-5.51c1.03-2.44,1.03-4.55,0-6.09Zm-15.02,.73c-1.18-.4-2.47-.4-3.65,0-.11-.25-.24-.5-.39-.73-.43-.64-1.02-1.16-1.77-1.58h7.96c-.74,.41-1.33,.93-1.75,1.56-.16,.23-.29,.48-.4,.74Z" /><g>
	<path fill="#3a3b40" d="M42.06,50.33c-.13,1.85,.5,5.39,1.01,7.45,.36,.21,.48,.18,.84,.42,.1,.09,.06,1.82,.14,1.91h.72c-.17-1.2,.22-5.93,1.18-13.15,.88-6.64,4.38-7.08,4.38-7.08,15.47,4.13,27.41,.16,27.41,.16,3.37,2.7,2.93,4.4,3.73,9.78,.88,4.45,1.12,8.4,1.56,10.53l.9-.05c.09-.2,.06-2.07,.18-2.1,.65-.27,.54-.25,.84-.38,0,0,1.15-4.76-.14-8.81,1.14-4.79,.52-8.13,.52-8.13,1.65-4.95-4.84-11.64-4.84-11.64-1.84-4.93-7.04-4.13-7.04-4.13-.15-1.43-2.91-2.54-3.68-3.25-.77-.71-4.59,1.98-4.59,1.98-4.44-3.81-8.42-.95-8.42-.95-4.9-.48-6.43,4.45-6.43,4.45-3.68,.48-3.37,3.34-3.37,3.34-1.84,.95-2.14,4.45-2.14,4.45-4.13,2.07-2.96,4.77-2.96,4.77-1.89,3.02,.21,10.45,.21,10.45Z" />
	<path fill="#4c4d51" d="M57.59,23.84s-2.3,11.51,5.76,17.19c0,0-5.68-4.75-5.76-17.19Z" />
	<path fill="#4c4d51" d="M59.53,41.04s-10.43-.94-11.73-9.93c0,0,2.3,7.27,11.73,9.93Z" />
	<path fill="#4c4d51" d="M53.67,25.93s-1.12,7.55,5.14,12.16c0,0-8.56-4.46-5.14-12.16Z" />
</g><path fill="#202123" d="M78.96,72.2c-.72,.93-4.22,2.11-4.22,2.11-.48,.12-1.08,.12-1.07-.3,.12-2.76-.41-3.04-1.8-3.11-1.9-.09-5.51-1.01-6.04-.79-.16,.07-.39,.14-.64,.21-.77,.22-1.62,.22-2.39,0-.25-.07-.48-.15-.64-.21-.53-.22-4.15,.7-6.04,.79-1.38,.06-1.91,.35-1.8,3.11,.02,.42-1.07,.3-1.07,.3,0,0-3.5-1.17-4.22-2.11-1.61-2.08-3.72-7.04-3.72-7.04,0,10.09,7.77,25.71,18.68,25.71s18.85-13.31,18.85-25.67c0,0-2.27,4.92-3.89,7Zm-6.67,4.01c-.06,.79-.52,1.55-1.29,2.11-.77,.56-1.38,.95-1.72,1.06-1.29,.42-2.43,.08-4.63-.17-.12-.13-.21-.27-.23-.44-.12-1.08,.12-1.01,.79-1.1,.67-.09,2.33-1.81-1.22-1.81s-1.9,1.72-1.22,1.81c.67,.09,.91,.02,.79,1.1-.02,.17-.11,.31-.23,.44-2.2,.24-3.34,.59-4.63,.17-.33-.11-.95-.5-1.72-1.06-.77-.56-1.22-1.31-1.29-2.11-.19-2.34-.13-3.31,1.37-3.52,2.2-.31,4.22-.48,6.17-.09,.5,.1,1.02,.1,1.52,0,1.95-.39,3.97-.22,6.17,.09,1.49,.21,1.56,1.18,1.37,3.52Z" /></g></svg>