<?xml version="1.0" encoding="utf-8"?><!DOCTYPE svg PUBLIC "-//W3C//DTD SVG 1.1//EN" "http://www.w3.org/Graphics/SVG/1.1/DTD/svg11.dtd"><svg viewBox="0 0 128 128" xmlns="http://www.w3.org/2000/svg" xmlns:xlink="http://www.w3.org/1999/xlink"><desc>Created with https://github.com/gomig/avatar</desc><defs></defs><path fill="#f58f97" d="M117.5,87.16V40.75c0-4.76-2.61-9.24-6.63-11.58L70.72,6.02c-4.2-2.33-9.24-2.33-13.35,0L17.22,29.27c-4.2,2.33-6.72,6.72-6.72,11.58v46.31c0,4.76,2.61,9.24,6.63,11.58l40.15,23.25c4.2,2.33,9.24,2.33,13.35,0l40.05-23.34c4.29-2.33,6.82-6.72,6.82-11.48Z"/><mask id="mask-f6d03df7-899c-4f28-9a2a-43f33c5e1b8e"><path fill="white" d="M0,0V64H10.5v23.16c0,4.76,2.61,9.24,6.63,11.58l40.15,23.25c4.2,2.33,9.24,2.33,13.35,0l40.05-23.34c4.29-2.33,6.82-6.72,6.82-11.48v-23.16h10.5V0H0Z"/></mask><g mask="url(#mask-f6d03df7-899c-4f28-9a2a-43f33c5e1b8e)"><path fill="#6b1520" d="M78.59,93.64l-1.49-37.27h-.16c-.71,4.32-1.26,8.65-2.04,12.97l-4.56,24.3h-13.05l-5.58-37.27h-.16c-.08,4.4,0,8.73-.24,13.13l-1.34,24.14h-17.22l6.92-59.29h19.97l4.56,31.53h.16c.47-3.7,.86-7.31,1.57-11.01l3.85-20.52h19.74l5.74,59.29h-16.67Z"/></g></svg>