<?xml version="1.0" encoding="utf-8"?><!DOCTYPE svg PUBLIC "-//W3C//DTD SVG 1.1//EN" "http://www.w3.org/Graphics/SVG/1.1/DTD/svg11.dtd"><svg viewBox="0 0 128 128" xmlns="http://www.w3.org/2000/svg" xmlns:xlink="http://www.w3.org/1999/xlink"><desc>Created with https://github.com/gomig/avatar</desc><defs></defs><rect fill="#ffeead" x="4" y="4" width="128" height="128"/><g><path fill="#725d22" d="M45.88,50.4c1.11-1.9,2.62-3.42,4.52-4.55,1.9-1.13,3.97-1.7,6.19-1.7h13.9c2.43,0,4.65,.55,6.68,1.64,2.02,1.09,3.63,2.6,4.83,4.52,1.19,1.92,1.79,4.08,1.79,6.47s-.6,4.6-1.79,6.65c-1.19,2.04-2.81,3.66-4.86,4.86-2.04,1.19-4.26,1.79-6.65,1.79s-4.54-.6-6.47-1.79c-1.92-1.19-3.43-2.8-4.52-4.83-1.09-2.02-1.64-4.25-1.64-6.68v-3.95h-1.21c-1.01,0-1.88,.37-2.61,1.12-.73,.75-1.09,1.63-1.09,2.64v28.6h-8.74v-28.6c0-2.23,.56-4.29,1.67-6.19Zm27.56,9.32c.79-.79,1.18-1.77,1.18-2.94s-.39-2.08-1.18-2.85c-.79-.77-1.77-1.15-2.94-1.15h-4.01v4.01c0,1.17,.38,2.15,1.15,2.94,.77,.79,1.72,1.18,2.85,1.18s2.15-.39,2.94-1.18Z"/></g></svg>